<svg enable-background="new 0 0 595.3 595.3" viewBox="0 0 595.3 595.3" xmlns="http://www.w3.org/2000/svg"><g fill="#69b4ff" opacity=".8"><path d="m311.8 80-7.6 4.2c-2.4-2.5-5.1-4.6-8.1-6.4l2.4-8.3c.6-2.2-.6-4.5-2.8-5.1l-12.8-3.7c-2.2-.6-4.5.6-5.1 2.8l-2.4 8.3c-3.4 0-6.8.3-10.2 1.2l-4.2-7.6c-1.1-2-3.6-2.7-5.6-1.6l-11.6 6.4c-2 1.1-2.7 3.6-1.6 5.6l4.2 7.6c-2.5 2.4-4.6 5.1-6.4 8.1l-8.3-2.4c-2.2-.6-4.5.6-5.1 2.8l-3.7 12.8c-.6 2.2.6 4.5 2.8 5.1l8.3 2.4c0 3.4.3 6.8 1.2 10.2l-7.6 4.2c-2 1.1-2.7 3.6-1.6 5.6l6.4 11.6c1.1 2 3.6 2.7 5.6 1.6l7.6-4.2c2.4 2.5 5.1 4.6 8.1 6.4l-2.4 8.3c-.6 2.2.6 4.5 2.8 5.1l12.8 3.7c2.2.6 4.5-.6 5.1-2.8l2.4-8.3c3.4 0 6.8-.3 10.2-1.2l4.2 7.6c1.1 2 3.6 2.7 5.6 1.6l11.6-6.4c2-1.1 2.7-3.6 1.6-5.6l-4.2-7.6c2.5-2.4 4.6-5.1 6.4-8.1l8.3 2.4c2.2.6 4.5-.6 5.1-2.8l3.7-12.8c.6-2.2-.6-4.5-2.8-5.1l-8.3-2.4c0-3.4-.3-6.8-1.2-10.2l7.6-4.2c2-1.1 2.7-3.6 1.6-5.6l-6.4-11.6c-1.2-2-3.7-2.7-5.6-1.6zm-26.4 51.6c-10.4 5.8-23.6 2-29.4-8.4s-2-23.6 8.4-29.4 23.6-2 29.4 8.4c5.9 10.4 2.1 23.6-8.4 29.4z"/><path d="m373.4 82.4-6-4.7c-1-.8-2.5-.6-3.3.4l-3.1 3.9c-1.8-.8-3.7-1.3-5.7-1.6l-.6-4.9c-.2-1.3-1.3-2.2-2.6-2l-7.6 1c-1.3.2-2.2 1.3-2 2.6l.6 4.9c-1.9.8-3.6 1.8-5.1 2.9l-3.9-3.1c-1-.8-2.5-.6-3.3.4l-4.7 6c-.8 1-.6 2.5.4 3.3l3.9 3.1c-.8 1.8-1.3 3.7-1.6 5.7l-4.9.6c-1.3.2-2.2 1.3-2 2.6l1 7.6c.2 1.3 1.3 2.2 2.6 2l4.9-.6c.8 1.8 1.8 3.6 2.9 5.1l-3.1 3.9c-.8 1-.6 2.5.4 3.3l6 4.7c1 .8 2.5.6 3.3-.4l3.1-3.9c1.8.8 3.7 1.3 5.7 1.6l.6 4.9c.2 1.3 1.3 2.2 2.6 2l7.6-1c1.3-.2 2.2-1.3 2-2.6l-.6-4.9c1.8-.8 3.6-1.8 5.1-2.9l3.9 3.1c1 .8 2.5.6 3.3-.4l4.7-6c.8-1 .6-2.5-.4-3.3l-3.9-3.1c.8-1.8 1.3-3.7 1.6-5.7l4.9-.6c1.3-.2 2.2-1.3 2-2.6l-1-7.6c-.2-1.3-1.3-2.2-2.6-2l-4.9.6c-.8-1.8-1.7-3.6-2.9-5.1l3.1-3.9c.9-1 .7-2.5-.4-3.3zm-9 19.8c.9 6.8-4 13-10.8 13.9s-13-4-13.9-10.8 4-13 10.8-13.9 13 3.9 13.9 10.8z"/></g><path d="m131.1 499.5h360.7v9.2h-360.7z" fill="#003f3f"/><path d="m160.8 508.7h295v25.2h-295z" fill="#18737c"/><path d="m372.6 359.2c-10.6-6.6-47.8-5.4-51.2-16.3-1-3.2-1.4-7.3-1.5-11.5-.2-9.8 1.5-19.8 1.5-19.8l-23.6-7.1-23.6 7.1s1.7 10.3 1.5 20.2c-.1 4-.5 8-1.5 11.1-3.4 10.8-40.6 9.6-51.2 16.3-6.7 4.2-12.8 18.9-16.9 31.7h183.6c-4.4-12.8-10.4-27.5-17.1-31.7z" fill="#ffba7f"/><path d="m297.4 335.5c.2 0 17.9-.9 22.4-5.8-.2-9.8 1.8-21.7 1.8-21.7l-23.9-7.1-24 7s2.1 12.2 1.9 22.1c4.2 4.9 21.6 5.5 21.8 5.5z" fill="#f2a068"/><path d="m274.1 342.4c-3.4 11-41.1 9.7-51.8 16.4-6.8 4.2-12.9 19.1-17.2 32.1h92.8l-9-32.9c-11.7.1-14.4-17.2-14.8-15.6z" fill="#3c3c3b"/><path d="m373.7 358.9c-10.7-6.7-48.4-5.5-51.8-16.4-.5-1.6-3.2 15.6-15 15.6l-9 32.9h93c-4.3-13-10.4-27.9-17.2-32.1z" fill="#575756"/><path d="m253.7 257.7s-6.9-9.6-13.4-7.7-5 11.7-5 15.4 5.5 16.6 9.1 18c9.3 3.6 9.3-10 9.3-10z" fill="#ffba7f"/><path d="m355 250c-6.6-1.9-13.4 7.7-13.4 7.7v15.8s0 14 9.3 10c3.6-1.6 9.1-14.4 9.2-18-.1-3.8 1.4-13.6-5.1-15.5z" fill="#fcaf75"/><path d="m347.1 253.6c0-23.5-.5-39.6-18.1-54.2-16.9-14.1-46.2-14.1-63.1 0-17.6 14.7-18.1 30.8-18.1 54.2 0 23.5 1.6 30.1 1.6 30.1s3.2 17.3 6.8 21.9 7.3 6.8 17.8 15.9c10 8.7 15.1 9.5 22.9 9.6h.6s.4 0 .6 0c7.8-.1 12.9-.9 22.9-9.6 10.5-9.1 14.1-11.4 17.8-15.9 3.6-4.6 6.8-21.9 6.8-21.9 0-.2.1-.3.1-.3s1.4-6.3 1.4-29.8z" fill="#fcaf75"/><path d="m298.1 331c7.8-.1 13-.9 22.9-9.6 10.5-9.1 14.1-11.4 17.8-15.9 3.6-4.6 6.8-21.9 6.8-21.9 0-.2.1-.3.1-.3s1.4-6.3 1.4-29.8-.5-39.6-18.1-54.2c-8.5-7-20-10.6-31.5-10.6v142.3h.1z" fill="#ffba7f"/><path d="m281.3 262.8c0 3.3-2.7 6-6 6s-6-2.7-6-6 2.7-6 6-6 6 2.6 6 6z" fill="#683c11"/><path d="m320.8 244.9c-6.7-.1-11.1 5.6-12.9 8s7.4-1.7 13.4-2.1c6.8-.5 17.1 4 17.1 4s-8.1-9.8-17.6-9.9z" fill="#683c11"/><path d="m319.5 256.8c-3.3 0-6 2.7-6 6s2.7 6 6 6 6-2.7 6-6c0-3.4-2.7-6-6-6z" fill="#432918"/><path d="m274 244.8c6.7-.1 11.1 5.6 12.9 8s-7.4-1.7-13.4-2.1c-6.8-.5-17.1 4-17.1 4s8.2-9.8 17.6-9.9z" fill="#683c11"/><path d="m275.3 256.7c3.3 0 6 2.7 6 6s-2.7 6-6 6-6-2.7-6-6 2.7-6 6-6z" fill="#432918"/><path d="m281.7 296.1 6.8.1 9.3.2 10.5-.3 5.9.6-7.8 7.8-16.7-1.3-8-6.5" fill="#fff"/><path d="m285.1 296.5s-.5 3.8 13 3.7c13.7-.1 12.2-3.6 12.2-3.6l-12.7.1-11.6-.5" fill="#fff"/><path d="m280.5 295.6s9.4-.9 13-1c2.9-.1 3.9 1 5 .9 1.3-.1 2.4-.8 5.4-.9s11.5 1.5 11.5 1.5-.8 2.1-17.2 2c-15.3-.2-17.7-2.5-17.7-2.5z" fill="#e28156"/><path d="m282.4 296.3-1.9-.7s5.5 11.4 17.6 11.3c13.7-.1 17.3-10.9 17.3-10.9l-1.8.6s-4.8 6.6-15.5 6.6c-9.4.1-15.7-6.9-15.7-6.9z" fill="#e28156"/><path d="m346.4 360.2-30.8-12.1-18.1 2.9-16.6-4.2-31.9 13.4-.9 30.8h98.9z" fill="#dadada"/><path d="m301.7 368.4h-8l-1.6 22.6h11.6z" fill="#0464b9"/><path d="m293.7 369.5h8.1s8.6-6.2 6.2-12.2c-2-4.8-10.3-6.4-10.3-6.4s-8 .2-10 3.8c-4.5 8 6 14.8 6 14.8z" fill="#035693"/><path d="m298 350.3-25.3-16.6-2.3 14.3 12.5 17.2z" fill="#f6f6f6"/><path d="m297.1 350.3 25.4-16.5 1.1 15.3-11.3 16.1z" fill="#f6f6f6"/><path d="m272.7 346.8-38.9 8.3 8.1 34.4v1.4h42.7z" fill="#3c3c3b"/><path d="m271.3 340.9-6.2 5.9-6.7 27.6 10.8 10.7-.7 5.9h16.2z" fill="#575756"/><path d="m353 389.6 12.2-33.8-42.9-8.9-12 44.1h42.7c0-1 0-1.4 0-1.4z" fill="#575756"/><path d="m325.7 385.1 10.8-10.6-6.6-27.7-6.2-5.9-13.5 50.1h18.6z" fill="#3c3c3b"/><path d="m350.3 221c-.5-8.2-6.3-25.8-20.5-32.3-15.8-7.2-28.6-7-35.4-6.2-6.3.3-9.9 1.8-9.9 1.8s-2.7-3.2.4-6c-6.2-.4-9.1 5.5-12 9.9-5.6-3.1-11-1.5-11-1.5s4.1 4.7-2 8c-1.2.6-3.2 1.8-5.4 3.5-.7.5-1.9 1.4-3.1 2.9-4.6 5.5-10.9 18.8-4.6 47.9v.1c.3 4.5.9 9.4 1.8 14.8.3 2 5.1-13.8 9.3-28.4 2.8 2.9 6 5.2 9.4 5.3-3-7.8-.3-16.6.7-16.6 2.8 4.6 10.1 15.7 25.3 14-2.4-8.7-1.2-12.6 1.2-17.6 4.8 4 6.8 15 5.2 22.5 11.3-3.9 16.9-19.2 15.4-24.8 4.4 7.2 3.6 13.2 3.8 19 5-.4 10.4-6.2 10.5-10.4 2.8 3.3 3.6 11.5 2.1 15.8 2.3-1.1 4.1-2.9 5.4-5.1 4 13.9 8.3 28.1 8.6 26.2.7-4.4 1.2-8.5 1.6-12.3 1.3-10.8 3.7-22.2 3.2-30.5z" fill="#683c11"/><path d="m205.1 391s-12.4 54.2-11.4 76.9c.7 16.2 2.7 27 2.7 27l51.4-4 1.8-102.6z" fill="#3c3c3b"/><path d="m234.5 499.5c-3.5-8.9-11.5-15.2-20.9-15.2s-17.4 6.3-20.9 15.2z" fill="#ffba7f"/><path d="m425.1 499.5v-105.9c0-6-4.8-10.8-10.8-10.8h-180.1c-6 0-10.8 4.8-10.8 10.8v105.9z" fill="#dadada"/><path d="m425.1 499.5v-107.3c0-5.2-4.2-9.4-9.4-9.4h-108.1l70.4 116.7z" fill="#fff" opacity=".2"/><path d="m341.9 445.1c0 3.3-7.5 6-16.7 6s-16.7-2.7-16.7-6 7.5-6 16.7-6 16.7 2.7 16.7 6z" fill="#c6c6c6"/></svg>