<svg xmlns="http://www.w3.org/2000/svg" viewBox="0 0 44 37.34332"><title>OTP verification</title><g id="Layer_2" data-name="Layer 2"><g id="Layer_1-2" data-name="Layer 1"><rect y="7.18249" width="34.82706" height="30.16083" rx="2.89774" ry="2.89774" fill="#0098ff"/><rect x="2.44872" y="13.0897" width="29.92963" height="21.44112" rx="0.83052" ry="0.83052" fill="#ebf7ff"/><rect x="9.34633" y="22.66377" width="15.65139" height="2.89291" rx="0.38958" ry="0.38958" fill="#0098ff"/><rect x="13.17964" y="27.63364" width="7.98477" height="2.89291" rx="0.27826" ry="0.27826" fill="#0098ff"/><rect x="9.34633" y="17.78662" width="15.65139" height="2.89291" rx="0.38958" ry="0.38958" fill="#0098ff"/><path d="M41.27529,0H19.1309a2.72482,2.72482,0,0,0-2.72482,2.72482V15.96794a2.72471,2.72471,0,0,0,2.72471,2.72471h2.616v3.87276a.57612.57612,0,0,0,.96367.42628l4.7286-4.299H41.27518A2.72482,2.72482,0,0,0,44,15.96784V2.72471A2.72471,2.72471,0,0,0,41.27529,0Z" fill="#afdefd"/><path d="M23.53694,13.31612H22.02953A2.27868,2.27868,0,0,1,20.388,12.762a2.10432,2.10432,0,0,1-.57877-1.596V6.98513a2.10432,2.10432,0,0,1,.57877-1.596A2.27533,2.27533,0,0,1,22.02953,4.835h1.50741a2.27783,2.27783,0,0,1,1.64151.55411,2.10689,2.10689,0,0,1,.578,1.596V11.166a2.10689,2.10689,0,0,1-.578,1.596A2.28119,2.28119,0,0,1,23.53694,13.31612ZM22.29849,11.865h.95562a.85759.85759,0,0,0,.61191-.178.81882.81882,0,0,0,.18188-.60035V7.06374a.818.818,0,0,0-.18188-.59957.85389.85389,0,0,0-.61191-.17879h-.95562a.82734.82734,0,0,0-.605.17879.83586.83586,0,0,0-.17494.59957v4.02285a.83674.83674,0,0,0,.17494.60035A.83086.83086,0,0,0,22.29849,11.865Z" fill="#0098ff"/><path d="M30.93839,13.31612H29.8086q-.29593,0-.29593-.27667V6.431a.13008.13008,0,0,0-.148-.14566H27.83031a.24675.24675,0,0,1-.28206-.27667v-.897a.24706.24706,0,0,1,.28206-.27667h5.08637a.24761.24761,0,0,1,.28283.27667v.897a.2473.2473,0,0,1-.28283.27667H31.38229c-.10712,0-.16107.04855-.16107.14566v6.60842A.2473.2473,0,0,1,30.93839,13.31612Z" fill="#0098ff"/><path d="M36.5388,13.31612H35.39514a.2473.2473,0,0,1-.28283-.27667V5.11165a.2473.2473,0,0,1,.28283-.27667h3.283a2.24089,2.24089,0,0,1,1.62764.56027,2.11063,2.11063,0,0,1,.57877,1.58987v1.2662a2.1088,2.1088,0,0,1-.57877,1.5891,2.24089,2.24089,0,0,1-1.62764.56027H36.9827q-.16184,0-.16184.14566v2.49309A.24706.24706,0,0,1,36.5388,13.31612Zm.43-4.3789h1.42649a.83421.83421,0,0,0,.60574-.178.81917.81917,0,0,0,.17494-.58724V7.06374a.83944.83944,0,0,0-.17494-.59957.83067.83067,0,0,0-.60574-.17879H36.96883a.12977.12977,0,0,0-.148.14566V8.79156A.12977.12977,0,0,0,36.96883,8.93722Z" fill="#0098ff"/><circle cx="3.51922" cy="10.20903" r="1.0705" fill="#fff"/><circle cx="7.35788" cy="10.20903" r="1.0705" fill="#fff"/><circle cx="11.08529" cy="10.20903" r="1.0705" fill="#fff"/></g></g></svg>