<svg enable-background="new 0 0 480 480" viewBox="0 0 480 480" xmlns="http://www.w3.org/2000/svg"><path d="m232 436.2h16v16h-16z" fill="#0080ff"/><path d="m248 396.2v24h-16v-72h16v32z" fill="#0080ff"/><path d="m160 252.2c0-44 36-80 80-80s80 36 80 80-36 80-80 80-80-36-80-80zm8 0c0 40 32 72 72 72s72-32 72-72-32-72-72-72-72 32-72 72z" fill="#0068ff"/><path d="m135.2 380.2h-119.2v-320h24v296c0 4 2.4 7.2 6.4 8z" fill="#a1bfe2"/><path d="m464 60.2v320h-119.2l88.8-16c4-.8 6.4-4 6.4-8v-296z" fill="#a1bfe2"/><path d="m232 59.4v96.8c-48.8 4-88 45.6-88 96 0 44.8 30.4 82.4 72 92.8v33.6l-160-28.8v-320z" fill="#f3f9ff"/><path d="m424 29.8v320l-160 28.8v-33.6c41.6-10.4 72-48 72-92.8 0-50.4-38.4-91.2-88-96v-96.8z" fill="#f3f9ff"/><circle cx="240" cy="252.2" fill="#c3cbd8" r="56"/><path d="m296 252.2c0-5.6-.8-11.2-2.4-16.8-10.4-13.6-27.2-23.2-45.6-23.2-31.2 0-56 24.8-56 56 0 5.6.8 11.2 2.4 16.8 10.4 14.4 26.4 23.2 45.6 23.2 31.2 0 56-24.8 56-56z" fill="#f3f9ff"/><path d="m296 252.2c0-31.2-24.8-56-56-56s-56 24.8-56 56 24.8 56 56 56 56-24.8 56-56zm-56 72c-40 0-72-32-72-72s32-72 72-72 72 32 72 72-32 72-72 72z" fill="#0b1e3f"/><path d="m424 349.8v-320l-176 29.6v96.8c49.6 4 88 45.6 88 96 0 44.8-30.4 82.4-72 92.8v33.6zm40 30.4v-320h-24v296c0 4-2.4 7.2-6.4 8l-88.8 16zm-232 72h16v-16h-16zm16-104h-16v72h16v-24-16zm-112.8 32-88.8-16c-4-.8-6.4-4-6.4-8v-296h-24v320zm-85.6-368 190.4 32 190.4-32c2.4-.8 4.8 0 6.4 1.6 2.4 1.6 3.2 4 3.2 6.4v24h32c4 0 8 3.2 8 8v336c0 4-4 8-8 8h-208v64c0 4-4 8-8 8h-32c-4 0-8-4-8-8v-64h-208c-4 0-8-4-8-8v-336c0-4.8 4-8 8-8h32v-24c0-2.4.8-4.8 2.4-6.4 2.4-.8 4.8-1.6 7.2-1.6zm190.4 160c-44 0-80 36-80 80s36 80 80 80 80-36 80-80-36-80-80-80zm-24 172.8c-41.6-10.4-72-48-72-92.8 0-50.4 39.2-91.2 88-96v-96.8l-176-29.6v320l160 28.8z" fill="#0b1e3f"/><g fill="#c3cad8"><path d="m232 60.2-130.4-12.8c-16-1.6-29.6 10.4-29.6 26.4v239.2c0 11.2 7.2 21.6 18.4 25.6l125.6 41.6-160-32v-320z"/><path d="m248 60.2 130.4-12.8c16-1.6 29.6 10.4 29.6 26.4v239.2c0 11.2-7.2 21.6-18.4 25.6l-125.6 41.6 160-32v-320z"/></g></svg>