<svg enable-background="new 0 0 29.9 29.9" viewBox="0 0 29.9 29.9" xmlns="http://www.w3.org/2000/svg"><g fill="#006ac1"><path d="m21.4 24.8c.2-.3.4-.7.6-1 .6-1.6.1-3.5-1.3-4.6-1.8-1.4-4.3-1-5.6.7-1.4 1.8-1 4.3.7 5.6 1.4 1.1 3.4 1.1 4.8.1.2-.3.5-.5.8-.8zm-.8-1.6c-.1.2-.2.5-.4.6-.2.2-.3.4-.5.5-.9.6-2.1.6-3 0-1.1-.9-1.3-2.4-.5-3.6.9-1.1 2.5-1.3 3.6-.5.8.8 1.1 2 .8 3z"/><path d="m27.3 27.8-5-3.8c-.1.4-.3.7-.6 1-.2.3-.5.6-.8.8l5 3.8c.5.4 1.2.3 1.6-.2s.3-1.2-.2-1.6z"/><path d="m13 22.5c0-1.1.4-2.2 1-3.1.8-1.1 2-1.8 3.4-1.9.9-.1 1.8 0 2.6.4-.2-.5-.3-.7-.3-.7-.5-1.2-3.6-2.2-3.6-2.2-1.7-.6-1.7-1.2-1.7-1.2-3.1 6.4-5.7 0-5.7 0-.2.9-3.6 1.9-3.6 1.9-1 .4-1.4.9-1.4.9-1.4 2.1-1.6 6.9-1.6 6.9 0 1.1.5 1.2.5 1.2 3.3 1.5 8.5 1.7 8.5 1.7 1.3 0 2.5 0 3.6-.2-1.1-.8-1.7-2.2-1.7-3.7z"/><path d="m12.7 8.4c1-.5 2.3-1.3 2.8-2 .2-.2.3-.4.3-.5s-.4-2.3-.4-2.3l-3.8 2.1-3.8-2.1s-.4 2.2-.4 2.3.1.3.3.5c.6.6 1.8 1.5 2.8 2 .7.3 1.5.3 2.2 0z"/><path d="m17.8 1.8-6.2-1.8-6.2 1.8 6.2 3.4z"/><path d="m7.4 10c.1.4.2.6.4.8.2 1.5 1.3 2.9 2.5 3.7.8.5 1.8.5 2.6 0 1.2-.8 2.3-2.2 2.5-3.7.2-.1.3-.4.4-.8.1-.3.3-1.1 0-1.4-.1-.1-.1-.1-.2-.1.1-.4.1-.7.2-1l.1-.8-.6.7c-.5.6-1.6 1.3-2.5 1.8-.7.4-1.6.4-2.3 0-.9-.5-2-1.2-2.5-1.8l-.7-.8.1.8c0 .3.1.7.2 1-.1 0-.1.1-.2.1-.3.5-.1 1.3 0 1.5zm.4-1 .5.2-.1-.5c0-.2-.1-.4-.1-.5.7.6 1.6 1.2 2.5 1.6.6.3 1.4.3 2.1 0 .8-.4 1.8-1 2.5-1.6 0 .2-.1.3-.1.5l-.1.5.4-.2c0 .2 0 .6-.1.9-.1.4-.2.5-.4.6-.2 1.2-.7 2.2-1.7 3.1-.4.4-1 .6-1.6.6s-1.2-.2-1.6-.6c-1-.9-1.4-1.9-1.7-3.1-.2-.1-.3-.2-.3-.6-.1-.3-.2-.7-.2-.9z"/><path d="m5.8 6.3-.3-4.2-.4 4.2.4 1.2z"/></g></svg>