<svg enable-background="new 0 0 367 419" viewBox="0 0 367 419" xmlns="http://www.w3.org/2000/svg"><g clip-rule="evenodd" fill-rule="evenodd"><path d="m150 118c0 58 47 105 105 105s105-47 105-105-47-105-105-105-105 47-105 105" fill="#3d94d7"/><path d="m264.6 17c3.3-.9 6.8-1.3 10.2-.7 3.4.7 6.6 2.6 8.3 5.4 1.9 3.3 1.8 7.3 1.5 11-.6 9.4-1.2 18.8-1.8 28.2-.2 2.6-.3 5.3.7 7.7 1.1 2.4 3.7 4.4 6.4 3.9 1.4-.3 2.5-1.1 3.8-1.6s3-.5 3.8.6c.5.6.5 1.5.4 2.3-.4 3.5-2.7 6.7-5.9 8.4 1.9-.9 4.2.9 4.3 2.9 0 2-1.7 3.7-3.6 4.5-1.9.7-4.1.7-6.2.7 1.7 0 3.1 1.8 2.9 3.4s-1.5 3-3.1 3.6-3.4.7-5.1.5c-3.6-.3-7.3-1.4-10.2-3.6-5-3.8-7.1-10.3-7.1-16.4-.1-6.1 1.5-12.1 2.4-18.2 2.1-14 .4-28.3-1.3-42.4.4-.1.8-.2 1.2-.4" fill="#ff7081"/><path d="m283 228.8c-4.1 3.8-5.6 9.8-1.7 14.4 3.7 4.3 10.7 5.2 15.3 1.8 11-8.3-.5-23.6-12.4-20.5-2.2.6-1.7 3.7.5 3.8 3.5.2 7.2.3 10 2.7 3 2.6 3.1 6.9.6 9.8-6.5 7.8-17.8-3.7-10.9-10.6.8-1-.5-2.3-1.4-1.4" fill="#7cabff"/><path d="m164.3 188c-1.4-1.6-2.9-2.8-3.6-4.9-1.4-4.2 1.3-6.3 4.4-7.9 3.2-1.6 5.7-3.5 6.6-7.3 1.5-6-3.3-13.4-9.3-11.6-2 .6-1.4 3.3 0 4.1 1.9 1.2 4.4 1.8 4.7 4.6.4 3.7-3 4.8-5.4 6.1-2.6 1.5-4.5 3.7-5.3 6.7-1.4 5.3 1.5 12.4 7.2 12.1.8 0 1.3-1.2.7-1.9" fill="#0a61a4"/><path d="m146 252.1c.5 3.5 4.2 10.8 8 11.8 2 .5 3.6-.8 5.1-1.9 2.9-2 5.7-4 8.6-6 1-.7 1.7-2.1.9-3.3-2.5-3.8-5-7.7-7.6-11.5-.7-1-2.2-1.7-3.4-.9-3.1 2.2-6.6 4.2-9.4 6.8-2 1.8.5 4.7 2.8 3.5 3.2-1.7 6.1-4.1 9.1-6.2-1.1-.3-2.2-.6-3.4-.9 2.5 3.8 5 7.7 7.6 11.5.3-1.1.6-2.2.9-3.3-1.7 1.2-3.4 2.4-5.1 3.6-1 .7-4.2 3.7-5.3 3.6-1-.1-3-3.5-3.6-4.2-1.2-1.4-2.3-2.8-3.9-3.8-.7-.4-1.4.4-1.3 1.2" fill="#fbc580"/><path d="m314 96.1c.5 3.5 4.2 10.8 8 11.8 2 .5 3.6-.8 5.1-1.9 2.9-2 5.7-4 8.6-6 1-.7 1.7-2.1.9-3.3-2.5-3.8-5-7.7-7.6-11.5-.7-1-2.2-1.7-3.4-.9-3.1 2.2-6.6 4.2-9.4 6.8-2 1.8.5 4.7 2.8 3.5 3.2-1.7 6.1-4.1 9.1-6.2-1.1-.3-2.2-.6-3.4-.9 2.5 3.8 5 7.7 7.6 11.5.3-1.1.6-2.2.9-3.3-1.7 1.2-3.4 2.4-5.1 3.6-1 .7-4.2 3.7-5.3 3.6-1-.1-3-3.5-3.6-4.2-1.2-1.4-2.3-2.8-3.9-3.8-.7-.4-1.4.4-1.3 1.2" fill="#fbc580"/><path d="m328.9 157.1c-6.3 3-12.4 6.2-18.6 9.5-1.5.8-1.7 2.4-.6 3.7 4.5 4.9 9 9.7 13.8 14.2.9.9 2.4.4 2.9-.7 3-6.8 7.6-16.2 6.3-23.9-.3-2-3.2-2.9-4-.7-1.2 3.4-1.2 7.3-2 10.9-.9 4.1-2.1 8.3-3.8 12.1l3.3-.4c-4.4-5.2-9.2-10-14-14.9 0 1.1-.1 2.3-.1 3.4 6-3.5 12-7.1 17.9-10.9 1.4-.7.2-2.9-1.1-2.3" fill="#ff7081"/><path d="m210.2 246.6c4.5-5.4 9-11.4 12.5-17.5 1.1-1.9-1.6-4.2-3-2.4-4.4 5.5-8.2 12-11.6 18.3-.6 1.3 1.1 2.7 2.1 1.6" fill="#ff7081"/><path d="m365.9 62.4-.3-.3c-1.5-1.3-4-1.6-5.4 0-1.5 1.6-1.4 3.8 0 5.4.1.1.2.2.3.3 1.3 1.5 4.1 1.5 5.5 0 1.2-1.4 1.5-4-.1-5.4" fill="#042844"/><path d="m183.9 212.4c-.1-.1-.2-.2-.3-.3-1.5-1.3-4-1.6-5.4 0-1.5 1.6-1.4 3.8 0 5.4l.3.3c1.4 1.5 4.1 1.5 5.5 0 1.2-1.4 1.5-4-.1-5.4" fill="#042844"/><path d="m239 85.7-70.5 26.6 6.7-28.7-18.3-4.6s-19.7 56-6 57.5c24 2.6 60.3-6.9 60.3-6.9z" fill="#ffafa7"/><path d="m214 146.9.2 54.7c17.8 22.1 79.7-6.5 79.7-6.5l.7-22.4 1.4-53.3c-1.4-21.2-20.9-31.6-20.9-31.6-8-4.1-20.3-6.4-31.4-5.8-11.5.6-14.4 6.2-19.1 16.8-3.8 8.7-10.6 16.8-10.6 48.1" fill="#042844"/><path d="m271.7 31.3-.8 11s9.3 1.3 6.7 9.8-9 4.8-9 4.8-1.6 21.8-23.9 14.9c-17.7-5.5-16.6-28.5-14.4-48.1.9-7.6 8-12.8 15.5-11.3l13.4 2.6c7.7 1.4 13.1 8.4 12.5 16.3" fill="#ffafa7"/><path d="m272 51-6.1 32.4c-1.4 7.3-8.6 12-15.9 10.2-6.7-1.6-11-8.1-9.8-14.9l3.3-18.6z" fill="#ffafa7"/><path d="m246 52.1s.1.5-.4.8-1.2-.4-1.4-1.5-.2-2.4-.2-3.7c0-1.5.1-2.9.1-4.4.3-6.3.7-11.3.9-11.3s.2 5.1 0 11.3c-.1 1.5-.1 2.9-.2 4.4-.1 1.4-.2 2.5 0 3.4.1.9.5 1.3.8 1.3.2 0 .3-.4.4-.3" fill="#042844"/><path d="m240 69c.2-.3 4.5 2.7 10.9 2.8s10.9-2.7 11.1-2.4c.1.1-.9 1-2.8 1.9s-4.9 1.7-8.3 1.7c-3.4-.1-6.3-1-8.2-2s-2.8-1.9-2.7-2" fill="#042844"/><path d="m244 56.7c.1-.1.6.3 1.5.7s2.3.6 3.6.2 2.3-1.4 2.8-2.2.7-1.4.9-1.4c.1 0 .3.7-.1 1.8-.4 1-1.4 2.4-3.2 3-1.8.5-3.5 0-4.4-.6-.9-.7-1.2-1.4-1.1-1.5" fill="#042844"/><path d="m272 51.8c0-.2.4-.3.7-.6.2-.2.3-.4.4-.7s0-.6-.2-.6c-.1-.1-.3 0-.3 0l-.7-.5c.6-1.5 1.1-2.5 1.3-2.4s-.1 1.3-.5 2.8l-.7-.5c.3-.6.9-.7 1.3-.5.3.1.6.5.7.9s0 .8 0 1.1c-.2.6-.6 1-.9 1.1-.7.2-1.1 0-1.1-.1" fill="#042844"/><path d="m257 31.8c-.1-.3.9-.8 2.2-.5s1.9 1.3 1.7 1.4c-.2.2-1-.2-2-.4-.9-.2-1.8-.2-1.9-.5" fill="#042844"/><path d="m237 28.2c-.2-.2 1-.9 2.6-.8s2.6.9 2.4 1.2c-.2.2-1.2 0-2.5-.1-1.3-.2-2.3-.1-2.5-.3" fill="#042844"/><path d="m270.3 42.4c-6.1-6.1-7.9-16.3-9.5-24.9-5.6 4.2-13.4 5.3-19.9 2.7-2 2.5-4.4 4.6-7.1 6.4-.8.5-1.6 1-2.5.7-1-.3-1.5-1.5-1.7-2.6-.8-3.4-.8-7.1.4-10.4s3.6-6.2 6.8-7.5c3.4-1.4 7.2-.8 10.8.2 5.3 1.4 10.5 3.6 15.2 6.5 4.7 2.8 9.1 6.5 11.1 11.7s2 15.2-2.8 17.8" fill="#ff7081"/><path d="m235.4 86.2c6.2-2.4-41.4 14.6-41.4 14.6l4.8 31.2 18.1-5.7z" fill="#042844"/><path d="m172.8 85s12.1-17.1 10-17.1c-2.2 0-3.3 3.2-7.5 5.4 0 0 6.7-21.4 4.6-20.9-2.1.4-7 14.2-7.4 14.2s4.3-15.4 2.5-15.6c-1.7-.2-5.9 14.1-5.9 14.1s2.9-13.6 1.1-13.9-4.5 12.2-4.5 12.2 2.2-10.5.5-10.8c-1-.2-10.2 25.9-10.2 25.9.2.1 16.8 6.5 16.8 6.5" fill="#ffafa7"/><path d="m267.5 145c-.1 0-.3-.9-.5-2.4-.3-1.6-.6-3.9-1-6.7-.8-5.7-1.8-13.5-2.8-22.2-.2-2.2-.4-4.4 0-6.5.3-2.1 1.3-4.1 2.6-5.7 2.7-3.1 6.3-4.6 9.3-5.2 3.1-.6 5.6-.4 7.3-.2s2.6.5 2.6.5c0 .1-1 0-2.6-.1-1.7 0-4.1-.1-7 .6-2.8.6-6.2 2.1-8.6 5-1.2 1.4-2 3.2-2.3 5.1s-.2 4 0 6.2c1 8.6 1.8 16.5 2.4 22.2.3 2.8.5 5.1.6 6.7.1 1.8.1 2.7 0 2.7" fill="#241352"/><path d="m265 142.1c0-.3 8.4.2 18.6 1.3s18.5 2.2 18.4 2.5c0 .3-8.3-.2-18.6-1.3-10.2-1-18.4-2.2-18.4-2.5" fill="#241352"/><path d="m93.4 3v37h-24.4l-.8 14.1-14.4-14.9h-53.8l4.8-38.9z" fill="#0a61a4" transform="translate(117)"/><path d="m203.8 13.8c-23.8-.4-47.7-.5-71.5-.1-.4 0-.4.6 0 .6 23.8.4 47.7.3 71.5-.1.3 0 .3-.4 0-.4" fill="#e6e2eb"/><path d="m203.8 21.8c-23.8-.4-47.7-.5-71.5-.1-.4 0-.4.6 0 .6 23.8.4 47.7.3 71.5-.1.3 0 .3-.4 0-.4" fill="#e6e2eb"/><path d="m200.8 29.8c-14.4-.4-29.1-.5-43.5-.1-.4 0-.4.6 0 .6 14.4.4 29.1.3 43.5-.1.3 0 .3-.4 0-.4" fill="#e6e2eb"/><path d="m237.7 37.8c-.3.1-.7-.1-1-.5-.4-.4-.7-.7-.6-1s.7-.3 1.3.2.6 1.2.3 1.3" fill="#042844"/><path d="m256.8 39c-.3.1-.7-.3-1.2-.8-.4-.5-.8-1-.6-1.1.2-.2.9.1 1.4.6.6.6.7 1.2.4 1.3" fill="#042844"/><path d="m252.8 55.8c.5 1.9 0 3.7-1 4.1s-2.2-.8-2.7-2.7 0-3.7 1-4.1c1.1-.4 2.3.8 2.7 2.7" fill="#241352" fill-opacity=".2"/><path d="m264 44.5c0 1.9-2.2 3.5-5 3.5s-5-1.5-5-3.5c0-1.9 2.2-3.5 5-3.5 2.7 0 5 1.5 5 3.5" fill="#241352" fill-opacity=".15"/><path d="m242 45.5c0 1.9-2.2 3.5-5 3.5s-5-1.5-5-3.5c0-1.9 2.2-3.5 5-3.5 2.7 0 5 1.5 5 3.5" fill="#241352" fill-opacity=".15"/><path d="m272.3 28c-.1-.1.3-.7-.1-1.7-.3-1-1.2-2.4-1.9-4-1.5-3.2-2.5-6-2.2-6.2s1.7 2.3 3.3 5.6c.7 1.7 1.5 3.1 1.7 4.4.1.7 0 1.3-.2 1.6-.4.3-.6.3-.6.3" fill="#0a61a4"/><path d="m219.2 133.8-4.2 54.6 58 7.6-3.9-63z" fill="#7cabff"/><path d="m222 96.4v42.6l7-2.4v-48.6l-7 2" fill="#7cabff"/><path d="m275.7 90s-26 3.3-18.3 45.3l6.5.7s-7.3-39.5 17.1-42.3z" fill="#7cabff"/><path d="m268.7 138s8.8 52.1-3.6 50.9c-40.9-4.2-65.3-4.8-65.3-4.8l-6.8 14.1c-.2 2.4 77.5 24.7 89.9 17.3 8.8-5.2 22.8-19.2 16.5-61.1l-1.5-14z" fill="#ffafa7"/><path d="m290.5 103.9s9.4 9.2 11.5 44.1l-36.5-4.1s-6.1-59.4 25-40" fill="#042844"/><path d="m204.4 184.6s-20.1-6.3-19.4-4.2 4.1 2.1 7.5 5.5c0 0-22.5.2-21.4 2.1 1.1 1.8 15.7 2.3 15.8 2.6s-16 .7-15.7 2.4c.4 1.7 15.3 1.3 15.3 1.3s-13.9 1.5-13.6 3.3 13.1.5 13.1.5-10.7 1.2-10.4 2.9c.2 1 31.4 1.2 31.4 2 0 .4-2.6-18.4-2.6-18.4" fill="#ffafa7"/><path d="m229.3 132c.2 0 .5.9.7 2.7.1.9 0 2-.5 3.1s-1.6 2.2-3.2 2.2c-1.5 0-2.7-1-3.3-2-.7-1.1-.8-2.1-.9-3-.1-1.7.1-2.7.3-2.7s.3 1 .6 2.6c.2.8.4 1.7 1 2.4.5.7 1.4 1.4 2.3 1.4s1.7-.7 2.2-1.5.6-1.7.7-2.5c0-1.6-.1-2.7.1-2.7" fill="#042844"/><path d="m226.5 134.4c.1.1 0 .3.1.5.1.3.2.3.4.2.2-.2.2-.3 0-.5-.1-.2-.3-.2-.5-.2 0-.1.2-.5.8-.4.2.1.5.2.7.7.1.4-.1.9-.4 1.1s-.9.3-1.2 0-.4-.6-.3-.9c0-.5.4-.6.4-.5" fill="#042844"/><path d="m263.5 133c.1-.1.7.5.5 1.5-.1.9-1.2 2.4-3.3 2.5-2.1 0-3.3-1.4-3.6-2.3-.3-1 .2-1.6.3-1.5.2 0 .2.6.6 1.2s1.4 1.4 2.6 1.4 2.1-.9 2.4-1.6c.4-.6.3-1.1.5-1.2" fill="#042844"/><path d="m261.1 129.7c-.1-.1.1-.7.7-.7.3 0 .6.2.9.7.3.6.3 1.7 0 2.3-.2.7-.8 1.2-1.3.8-.5-.5-.5-1.3-.5-1.7 0-.5.2-.9.4-1s.3 0 .3.1c0 .2-.2.5-.1.9.1.5.2.6.4.1s0-.9-.3-1.2c-.1-.2-.4-.1-.5-.3" fill="#042844"/><path d="m258.8 157c-.3-.1-.3-1.2-.3-2.5s.1-2.4.4-2.5.7 1.1.6 2.5c0 1.5-.4 2.6-.7 2.5" fill="#042844"/><path d="m254 165.9c-.2-.3.2-1.2.7-2.2s1-1.9 1.2-1.7c.2.1 0 1.3-.5 2.4-.5 1.2-1.2 1.8-1.4 1.5" fill="#042844"/><path d="m246 170.6c-.1-.3 1-.6 2.3-1 1.3-.3 2.5-.5 2.6-.3.2.2-.8.9-2.2 1.3-1.4.3-2.6.2-2.7 0" fill="#042844"/><path d="m235 169.4c.2-.3 1.3-.1 2.6.2s2.4.6 2.4.9-1.3.4-2.7.1c-1.5-.3-2.4-1-2.3-1.2" fill="#042844"/><path d="m228.1 163c.2-.2.7.6 1.2 1.7.5 1 .9 2 .7 2.2-.1.3-.8-.3-1.4-1.4-.5-1.1-.7-2.3-.5-2.5" fill="#042844"/><path d="m227 153c.3 0 .4 1.1.5 2.5.1 1.3.1 2.4-.2 2.5s-.7-1-.8-2.4c-.1-1.5.2-2.6.5-2.6" fill="#042844"/><path d="m234 152.1c0 .3-1.1.5-2.5.4-1.4 0-2.5-.3-2.5-.6s1.1-.5 2.5-.4c1.4 0 2.5.3 2.5.6" fill="#042844"/><path d="m244 152.1c0 .3-1.1.5-2.5.4-1.4 0-2.5-.3-2.5-.6s1.1-.5 2.5-.4c1.4 0 2.5.3 2.5.6" fill="#042844"/><path d="m255 152.1c0 .3-1.1.5-2.5.4-1.4 0-2.5-.3-2.5-.6s1.1-.5 2.5-.4c1.4 0 2.5.3 2.5.6" fill="#042844"/><path d="m259.3 263.1c1.3-6.8 2.4-14.2 2.7-21.1.1-2.2-3-2.7-3.4-.5-1.1 6.9-1.5 14.3-1.6 21.3 0 1.4 2 1.7 2.3.3" fill="#ff957e"/><path d="m293.9 285.4c-.1-.1-.2-.2-.3-.3-1.5-1.3-4-1.6-5.4 0-1.5 1.6-1.4 3.8 0 5.4l.3.3c1.4 1.5 4.1 1.5 5.5 0 1.2-1.4 1.5-4-.1-5.4" fill="#042844"/><path d="m210.2 105.3c0 57.8-46.8 104.7-104.6 104.7s-104.6-46.9-104.6-104.7 46.8-104.7 104.6-104.7 104.6 46.9 104.6 104.7" fill="#3d94d7" transform="translate(4 209)"/><path d="m125 278.7 70.5 26.6-6.7-28.7 18.3-4.7s19.7 56 6 57.5c-24 2.6-60.3-6.9-60.3-6.9z" fill="#ffafa7"/><path d="m149 341.9-.2 54.7c-17.8 22.1-79.7-6.5-79.7-6.5l-.7-22.4-1.4-53.2c1.4-21.2 20.9-31.6 20.9-31.6 8-4.1 20.3-6.4 31.4-5.8 11.5.6 14.4 6.2 19.1 16.8 3.8 8.6 10.6 16.7 10.6 48" fill="#0a61a4"/><path d="m94.3 331s-8.8 52.1 3.6 50.9c40.9-4.2 65.3-4.8 65.3-4.8l6.8 14.1c.2 2.4-77.5 24.7-89.9 17.3-8.8-5.2-22.8-19.2-16.5-61.1l1.5-14z" fill="#ffafa7"/><path d="m71.5 297.9s-9.4 9.2-11.5 44.1l36.5-4.1s6.1-59.4-25-40" fill="#0a61a4"/><path d="m89.3 225.3.8 11s-9.3 1.3-6.7 9.8c2.7 8.5 9 4.8 9 4.8s1.6 21.8 23.9 14.9c17.7-5.5 16.6-28.5 14.4-48.1-.9-7.6-8-12.8-15.5-11.3l-13.4 2.6c-7.7 1.4-13.1 8.4-12.5 16.3" fill="#ffafa7"/><path d="m91 244 6.1 32.4c1.4 7.3 8.6 12 15.9 10.2 6.7-1.6 11-8.1 9.8-14.9l-3.3-18.6z" fill="#ffafa7"/><path d="m116 245.1c.1-.1.2.3.4.3.3 0 .7-.4.8-1.3s.1-2.1 0-3.4c-.1-1.5-.1-2.9-.2-4.4-.3-6.2-.3-11.3 0-11.3.2 0 .6 5 .9 11.3 0 1.5.1 2.9.1 4.4 0 1.3.1 2.7-.2 3.7-.2 1.1-.9 1.8-1.4 1.5s-.4-.8-.4-.8" fill="#042844"/><path d="m124 264c.1.1-.8 1-2.7 2s-4.8 1.9-8.2 2-6.4-.8-8.3-1.7-2.9-1.8-2.8-1.9c.2-.3 4.7 2.5 11.1 2.4 6.3-.1 10.7-3.1 10.9-2.8" fill="#042844"/><path d="m118 248.7c.1.1-.2.8-1.1 1.4s-2.6 1.2-4.4.6-2.8-2-3.2-3c-.4-1.1-.2-1.8-.1-1.8.2 0 .3.6.8 1.4s1.5 1.8 2.8 2.2c1.4.4 2.7.1 3.6-.2s1.4-.7 1.6-.6" fill="#042844"/><path d="m89 246.8c0 .1-.4.4-1 .1-.3-.1-.7-.5-.9-1.1-.1-.3-.1-.7 0-1.1s.3-.8.7-.9c.4-.2 1-.1 1.3.5l-.7.5c-.5-1.5-.7-2.7-.5-2.8s.7.9 1.3 2.4l-.7.5s-.1-.1-.3 0-.2.3-.2.6c.1.3.2.5.4.7.2.3.6.4.6.6" fill="#042844"/><path d="m107 224.8c-.1.3-1 .3-2 .5s-1.8.6-2 .4.4-1.1 1.7-1.4c1.4-.3 2.4.2 2.3.5" fill="#042844"/><path d="m126 221.2c-.1.3-1.2.1-2.5.2s-2.3.4-2.5.1c-.2-.2.8-1 2.4-1.2 1.6 0 2.7.6 2.6.9" fill="#042844"/><path d="m92.7 235.4c6.1-6.1 7.9-16.3 9.5-24.9 5.6 4.2 13.4 5.3 19.9 2.7 2 2.5 4.4 4.6 7.1 6.4.8.5 1.6 1 2.5.7 1-.3 1.5-1.5 1.7-2.6.8-3.4.8-7.1-.4-10.4s-3.6-6.2-6.8-7.5c-3.4-1.4-7.2-.8-10.8.2-5.3 1.4-10.5 3.6-15.2 6.5-4.7 2.8-9.1 6.5-11.1 11.7s-2 15.2 2.8 17.9" fill="#042844"/><path d="m127.6 279.2c-6.2-2.4 41.4 14.6 41.4 14.6l-4.8 31.2-18.1-5.7z" fill="#0a61a4"/><path d="m158.6 376.6s20.1-6.3 19.4-4.2-4.1 2.1-7.5 5.5c0 0 22.5.2 21.4 2.1-1.1 1.8-15.7 2.3-15.8 2.6s16 .7 15.7 2.4c-.4 1.7-15.3 1.3-15.3 1.3s13.9 1.5 13.6 3.3-13.1.5-13.1.5 10.7 1.2 10.4 2.9c-.2 1-31.3 1.2-31.4 2 0 .4 2.6-18.4 2.6-18.4" fill="#ffafa7"/><path d="m189.2 279s-12.1-17.1-10-17.1c2.2 0 3.3 3.2 7.5 5.4 0 0-6.7-21.4-4.6-20.9 2.1.4 7 14.2 7.4 14.2.3 0-4.3-15.4-2.5-15.6 1.7-.2 5.9 14.1 5.9 14.1s-2.9-13.6-1.1-13.9 4.5 12.2 4.5 12.2-2.2-10.5-.5-10.8c1-.2 10.2 25.9 10.2 25.9-.2.1-16.8 6.5-16.8 6.5" fill="#ffafa7"/><g fill="#fcf2fc"><path d="m78.4 325c.1 0 .6.7.6 2.2 0 .7-.3 1.7-1.3 2.4-.5.3-1.1.5-1.9.4-.7-.1-1.2-.6-1.6-1-.8-.8-1.3-1.3-2.1-1.4s-1.4.1-1.9.5c-.9.8-.9 1.7-1.1 1.7-.1.1-.6-1 .4-2.2.5-.6 1.5-1.1 2.7-1 .6 0 1.2.2 1.7.6.5.3.8.8 1.2 1.1 1.2 1.6 2.9 0 3-1.1.2-1.3.1-2.2.3-2.2"/><path d="m89 316.1c-.1-.1.4-.9 1.7-1.7.6-.4 1.7-.7 2.8-.2.5.2 1.1.7 1.3 1.3.2.7.1 1.3 0 1.9-.4 1.1-.6 1.8-.2 2.5.3.7.9 1.1 1.4 1.3 1.2.3 2-.2 2.1 0 .1.1-.6 1-2.2.8-.8-.1-1.8-.7-2.3-1.6-.2-.5-.4-1.1-.3-1.7s.3-1.1.4-1.6c.8-1.9-1.4-2.4-2.5-1.8-1.3.4-2.1 1-2.2.8"/><path d="m89 293.1c-.1-.1.4-.9 1.7-1.7.6-.4 1.7-.7 2.8-.2.5.2 1.1.6 1.3 1.3s.1 1.3 0 1.9c-.4 1.1-.6 1.8-.2 2.5.3.7.9 1.1 1.4 1.3 1.2.3 2-.2 2.1 0 .1.1-.6 1-2.2.8-.8-.1-1.8-.7-2.3-1.6-.2-.5-.4-1.1-.3-1.7s.3-1.1.4-1.6c.8-1.9-1.4-2.4-2.5-1.8-1.3.4-2.1 1-2.2.8"/><path d="m110.5 323c-.1.1-.9-.3-1.9-1.4-.4-.6-.9-1.6-.5-2.6.2-.5.6-1.1 1.2-1.4.7-.3 1.4-.2 1.9-.1 1.2.3 1.9.4 2.6 0 .7-.3 1.1-.9 1.2-1.5.2-1.1-.4-1.9-.2-2 .1-.1 1.1.5 1.1 2.1 0 .8-.5 1.7-1.5 2.3-.5.3-1.1.5-1.7.4-.6 0-1.2-.2-1.7-.2-2-.6-2.4 1.6-1.7 2.5.7 1.1 1.4 1.8 1.2 1.9"/><path d="m126 347c.1.1-.4.9-1.9 1.7-.7.4-1.9.6-2.9 0-.5-.3-1.1-.8-1.3-1.5s0-1.5.2-2c.5-1.2.7-1.9.4-2.7-.2-.8-.8-1.3-1.4-1.5-1.2-.5-2.1 0-2.2-.1s.7-1.1 2.4-.7c.8.2 1.8.9 2.2 2 .2.5.3 1.2.2 1.9-.1.6-.4 1.2-.5 1.7-1 2 1.3 2.7 2.5 2.2 1.4-.7 2.2-1.2 2.3-1"/><path d="m146 309c.1.1-.4.9-1.9 1.7-.7.4-1.9.6-2.9 0-.5-.3-1.1-.8-1.3-1.5s0-1.5.2-2c.5-1.2.7-1.9.4-2.7-.2-.8-.8-1.3-1.4-1.5-1.2-.5-2.1 0-2.2-.1s.7-1.1 2.4-.7c.8.2 1.8.9 2.2 2 .2.5.3 1.2.2 1.9-.1.6-.4 1.2-.5 1.7-1 2 1.3 2.7 2.5 2.2 1.4-.7 2.2-1.2 2.3-1"/><path d="m157.5 303c.1-.1 1.1.1 2.4 1.1.6.5 1.3 1.5 1.1 2.6-.1.6-.4 1.2-1.1 1.6s-1.4.5-2.1.5c-1.3-.1-2.1 0-2.8.5s-1 1.1-1 1.7c0 1.2.8 1.8.6 2 0 .1-1.3-.3-1.6-1.9-.1-.8.2-1.9 1.1-2.6.5-.4 1.1-.7 1.8-.8s1.3-.1 1.9-.1c2.3.2 2.2-2 1.3-2.9-.9-1-1.7-1.5-1.6-1.7"/><path d="m106 367c.1.1-.4.9-1.9 1.7-.7.4-1.9.6-2.9 0-.5-.3-1.1-.8-1.3-1.5s0-1.5.2-2c.5-1.2.7-1.9.4-2.7-.2-.8-.8-1.3-1.4-1.5-1.2-.5-2.1 0-2.2-.1s.7-1.1 2.4-.7c.8.2 1.8.9 2.2 2 .2.5.3 1.2.2 1.9-.1.6-.4 1.2-.5 1.7-1 2 1.3 2.7 2.5 2.2 1.4-.7 2.2-1.2 2.3-1"/><path d="m134 329c-.1.1-.8-.4-1.6-1.7-.4-.7-.6-1.8-.1-2.9.2-.5.7-1.1 1.3-1.3.7-.2 1.3-.1 1.8.1 1.1.4 1.7.6 2.4.3s1.1-.8 1.3-1.4c.4-1.2-.1-2 0-2.1s1 .6.8 2.3c-.1.8-.7 1.8-1.7 2.3-.5.2-1.1.4-1.7.3s-1.1-.3-1.5-.4c-1.8-.9-2.4 1.4-1.9 2.5s1 1.9.9 2"/><path d="m140 349c-.1.1-.8-.4-1.6-1.7-.4-.7-.6-1.8-.1-2.9.2-.5.7-1.1 1.3-1.3.7-.2 1.3-.1 1.8.1 1.1.4 1.7.6 2.4.3s1.1-.8 1.3-1.4c.4-1.2-.1-2 0-2.1s1 .6.8 2.3c-.1.8-.7 1.8-1.7 2.3-.5.2-1.1.4-1.7.3s-1.1-.3-1.5-.4c-1.8-.9-2.4 1.4-1.9 2.5s1 1.9.9 2"/><path d="m100.2 342c-.1 0-.4-.9-.1-2.5.2-.8.7-1.8 1.7-2.3.5-.2 1.2-.3 1.8 0s1 .9 1.3 1.4c.5 1.1.9 1.7 1.6 2s1.4.2 1.9-.1c1-.6 1.2-1.6 1.4-1.6.1 0 .3 1.2-.9 2.3-.6.5-1.7.8-2.7.5-.5-.2-1-.5-1.4-1s-.6-1-.9-1.5c-.8-2-2.7-.7-3 .5-.4 1.3-.5 2.3-.7 2.3"/><path d="m136.2 366c-.1 0-.4-.9-.1-2.5.2-.8.7-1.8 1.7-2.3.5-.2 1.2-.3 1.8 0s1 .9 1.3 1.4c.5 1.1.9 1.7 1.6 2s1.4.2 1.9-.1c1-.6 1.2-1.6 1.4-1.6.1 0 .3 1.2-.9 2.3-.6.5-1.7.9-2.7.5-.5-.2-1-.5-1.4-1s-.6-1-.9-1.5c-.8-2-2.7-.7-3 .5-.4 1.3-.5 2.3-.7 2.3"/><path d="m134.2 292c-.1 0-.4-.9-.1-2.5.2-.8.7-1.8 1.7-2.3.5-.2 1.2-.3 1.8 0s1 .9 1.3 1.4c.5 1.1.9 1.7 1.6 2s1.4.2 1.9-.1c1-.6 1.2-1.6 1.4-1.6.1 0 .3 1.2-.9 2.3-.6.5-1.7.9-2.7.5-.5-.2-1-.5-1.4-1s-.6-1-.9-1.5c-.8-2-2.7-.7-3 .5-.4 1.4-.5 2.3-.7 2.3"/><path d="m121.8 376c-.1.1-1 0-2.4-.8-.6-.4-1.4-1.3-1.4-2.4 0-.5.2-1.2.8-1.7s1.3-.6 1.9-.7c1.2-.1 2-.2 2.6-.7s.8-1.2.7-1.8c-.2-1.2-1-1.7-.9-1.8 0-.1 1.3.1 1.8 1.7.2.8.1 1.8-.7 2.7-.4.4-.9.8-1.6.9-.6.2-1.2.2-1.8.3-2.2 0-1.8 2.2-.8 2.9 1 .8 1.9 1.2 1.8 1.4"/><path d="m79.2 303c.1-.1.9.5 1.5 1.8.3.7.5 1.7-.1 2.7-.3.5-.8 1-1.6 1.1-.7.1-1.4-.1-2-.3-1.1-.5-1.8-.8-2.6-.5-.8.2-1.3.7-1.5 1.2-.5 1.1-.1 1.9-.3 2-.1.1-1-.7-.6-2.3.2-.8.9-1.6 2-2 .5-.2 1.2-.2 1.8-.1s1.1.4 1.6.6c1.9 1 2.7-1.1 2.3-2.2-.2-1.1-.7-1.9-.5-2"/><path d="m121.2 296c.1-.1.9.5 1.5 1.8.3.7.5 1.7-.1 2.7-.3.5-.8 1-1.6 1.1-.7.1-1.4-.1-1.9-.3-1.1-.5-1.8-.8-2.6-.5-.8.2-1.3.7-1.5 1.2-.5 1.1-.1 1.9-.3 2-.1.1-1-.7-.6-2.3.2-.8.9-1.6 2-2 .5-.2 1.2-.2 1.8-.1s1.1.4 1.6.6c1.9 1 2.7-1.1 2.3-2.2-.3-1.1-.8-1.9-.6-2"/></g><path d="m96.5 338c-.1 0-.1-.9 0-2.5s.3-3.9.6-6.7c.5-5.7 1.4-13.5 2.4-22.2.2-2.1.3-4.2 0-6.2s-1.1-3.7-2.3-5.1c-2.4-2.9-5.7-4.4-8.6-5-2.9-.7-5.3-.6-7-.6-1.7.1-2.6.2-2.6.1s.9-.3 2.6-.5 4.2-.4 7.3.2c3 .6 6.7 2.1 9.3 5.2 1.3 1.5 2.3 3.5 2.6 5.7.4 2.1.2 4.3 0 6.5-1 8.7-2 16.5-2.8 22.2-.4 2.8-.7 5.1-1 6.7-.2 1.3-.4 2.2-.5 2.2" fill="#241352"/><path d="m97 337.1c0 .3-8.2 1.5-18.4 2.5-10.2 1.1-18.5 1.6-18.6 1.3 0-.3 8.2-1.5 18.4-2.5 10.2-1.1 18.6-1.6 18.6-1.3" fill="#241352"/><path d="m187.7 351.1c.3-2.2.3-4.3 1.4-6.2 2.4-3.9 5.7-2.9 9-1.2s6.4 2.8 10 1.1c5.6-2.5 8.3-11.3 2.9-15.4-1.7-1.3-3.5.9-3.2 2.6.3 2.4 1.5 5-.5 7-2.6 2.7-5.7.4-8.3-.8-2.8-1.3-5.8-1.6-8.7-.4-5 2.1-8.6 9.1-4.7 13.9.7.6 2 .3 2.1-.6" fill="#0a61a4"/><path d="m225 270.8c-4.1 3.8-5.6 9.8-1.7 14.4 3.7 4.3 10.7 5.2 15.3 1.8 11-8.3-.5-23.6-12.4-20.5-2.2.6-1.7 3.7.5 3.8 3.5.2 7.2.3 10 2.7 3 2.6 3.1 6.9.6 9.8-6.5 7.8-17.8-3.7-10.9-10.6.8-1-.5-2.3-1.4-1.4" fill="#ff7081"/><path d="m62 263.8c-4.1 3.8-5.6 9.8-1.7 14.3 3.7 4.3 10.7 5.2 15.3 1.8 11-8.3-.5-23.6-12.4-20.5-2.2.6-1.7 3.7.5 3.8 3.5.2 7.2.3 10 2.7 3 2.6 3 6.9.6 9.8-6.5 7.8-17.8-3.7-10.9-10.6.8-.9-.5-2.2-1.4-1.3" fill="#7cabff"/><path d="m7.1 357c2.6 9.9 5.4 19.7 8.4 29.5.7 2.4 2.9 3.1 4.8 1.7 7.7-5.4 15.5-10.7 22.8-16.7 1.4-1.2 1.1-3.5-.3-4.5-8.6-6.1-20.1-15-31-15.1-2.8 0-4.7 4-1.9 5.7 4.4 2.6 9.6 3.5 14.3 5.6 5.4 2.3 10.8 5 15.5 8.6.1-1.6.2-3.3.3-4.9-8.2 5.2-15.9 11-23.7 16.8l4.6.9c-3.3-9.7-6.7-19.3-10.4-28.9-.7-1.9-4-.8-3.4 1.3" fill="#ff7081"/><path d="m236.9 315.7c6.9.9 14.2 1.5 21.2 1.2 2.6-.1 2.5-3.3 0-3.5-6.8-.6-14-.5-20.8-.1-1.4.2-1.9 2.2-.4 2.4" fill="#fbc580"/><path d="m4.9 315.7c6.9.9 14.2 1.5 21.2 1.2 2.6-.1 2.5-3.3 0-3.5-6.8-.6-14-.5-20.8-.1-1.4.2-1.9 2.2-.4 2.4" fill="#fbc580"/><path d="m50.9 304.4c-.1-.1-.2-.2-.3-.3-1.5-1.3-4-1.6-5.4 0-1.5 1.6-1.4 3.8 0 5.4l.3.3c1.3 1.5 4.1 1.5 5.5 0 1.2-1.4 1.5-4-.1-5.4" fill="#042844"/><path d="m148.5 338c-.3 0-.5-6-1-13.5-.5-7.4-.3-13.6 0-13.5.3 0 .5 6 1 13.5.5 7.4.3 13.5 0 13.5" fill="#042844"/><path d="m189 281.1 18.9-5.1 1.1 3.3-19 5.7z" fill="#042844"/><path d="m200 280c0 1.1-.9 2-2 2s-2-.9-2-2 .9-2 2-2 2 .9 2 2" fill="#e6e2eb"/><path d="m125.8 230c-.2.1-.7-.1-1.2-.6s-.7-1.1-.4-1.3c.2-.1.7.1 1.2.6s.7 1.1.4 1.3" fill="#042844"/><path d="m110.8 232c-.2.1-.7-.1-1.2-.6s-.7-1.1-.4-1.3c.2-.1.7.1 1.2.6s.7 1.1.4 1.3" fill="#042844"/><path d="m94 154.7v37.2h-24.6l-.8 14.1-14.4-14.9h-54.2l4.8-39.1z" fill="#fbc580"/><path d="m83.8 166.8c-23.8-.4-47.7-.5-71.5-.1-.5 0-.5.6 0 .6 23.8.4 47.7.3 71.5-.1.3 0 .3-.4 0-.4" fill="#e6e2eb"/><path d="m83.8 173.8c-23.8-.4-47.7-.5-71.5-.1-.5 0-.5.6 0 .6 23.8.4 47.7.3 71.5-.1.3 0 .3-.4 0-.4" fill="#e6e2eb"/><path d="m82.8 180.8c-14.4-.4-29.1-.5-43.5-.1-.4 0-.4.6 0 .6 14.4.4 29.1.3 43.5-.1.3 0 .3-.4 0-.4" fill="#e6e2eb"/></g></svg>