<svg enable-background="new 0 0 2000 2000" viewBox="0 0 2000 2000" xmlns="http://www.w3.org/2000/svg"><path d="m1553.7 1268.2c1 3.9 1.1 8.1 1.5 12.3h-18.5c.1-.1.1-.3.2-.4l2-5.1 8-19.9c3.2 3.7 5.6 8.1 6.8 13.1z" fill="#002033"/><path d="m1561.1 1178.8c-2.4 8.9-4.5 17.7-5.7 25.7-1.8 1.3-3.5 2.8-5.1 4.5-7.5 8.2-10.9 19.7-12.9 30.8-.2 1.4-.7 4.9-.7 4.9l-9 30.2-.5 1.8c-.4 1.2-.3 2.7.4 3.8h-940.7c-3 0-5.4-2.4-5.4-5.4v-90.8c0-3 2.4-5.4 5.4-5.4z" fill="#002033"/><path d="m1633.3 1197.9.5 74.9c0 .9-.3 1.8-.8 2.6-1.8 3-6.9 5.2-12.8 5.2h-9.8c-2.3-1.8-4.9-3.5-7.1-5.6-.7-.7-1.5-1.4-2.1-2.2-8.4-10.2-4.6-26.6-3.2-41 .4 0 .9 0 1.3-.1 1.1-.4 2.3-1.3 2.6-2.4 2.5-11.9 12.5-31 21.5-50.1 2 .3 3.8.8 5.3 1.4-.1-.1 4.6 14.8 4.6 17.3z" fill="#002033"/><path d="m1610.2 1310.1c-1.1 1.6-2.3 3.2-3.9 3.9s-3.4.4-5 0c-11.8-2.6-23.1-6.9-33.6-12.9-3.3-1.9-6.6-4-8.8-7.3-4.7-7-3.1-17.1-5.2-25.6-1.2-5-3.7-9.4-6.7-13.2l-8 19.9c-.9 2.3-1.5 4.7-3.1 6.7-1.2 1.5-3.5 1.9-5.3 1.3h-.1c-1.4-.5-2.8-1.7-3.1-3.2-.7-1.5 0-3.2.5-4.8l9-30.2s.5-3.6.7-4.9c1.9-11.1 5.4-22.6 12.9-30.8 1.5-1.7 3.3-3.2 5.1-4.5 2.7 2 5.6 4.1 8.8 6.1.7 8.3 3.8 18.4 6.3 23.9 22.8 51.1 25.4 18.5 26.3-.4 0 0-4.1 28.5 4.3 38.7 5.1 6.2 14.2 8.8 16.1 17.1 1.5 6.9-3 14.1-7.2 20.2z" fill="#e6325c"/><path d="m746.9 585.6c-10.3 11.3-16.9 25.5-19.1 40.6-.5 3.4-3.4 6-6.9 6h-62.3c-3.5 0-6.4-2.6-6.9-6-2.2-15.4-8.7-29-19.3-40.7-12.5-13.7-20-32-20-52 0-44.6 37.7-80.3 82.9-77.1 38 2.7 68.8 33.4 71.6 71.5 1.5 22.2-6.3 42.7-20 57.7z" fill="#f7af4d"/><path d="m690 694.6h-.7c-18.3 0-33.1-12.7-33.1-28.5v-21.3c0-1.1.9-2 2-2h62.9c1.1 0 2 .9 2 2v21.3c0 15.7-14.8 28.5-33.1 28.5z" fill="#c2def5"/><path d="m690 697.3h-.7c-19.7 0-35.8-14-35.8-31.2v-21.3c0-2.6 2.1-4.7 4.7-4.7h62.9c2.6 0 4.7 2.1 4.7 4.7v21.3c0 17.2-16 31.2-35.8 31.2zm-31-51.7v20.5c0 14.2 13.6 25.7 30.3 25.7h.7c16.7 0 30.3-11.5 30.3-25.7v-20.5z" fill="#2a2150"/><path d="m578.3 549h-62.9c-1 0-1.8-.8-1.8-1.8s.8-1.8 1.8-1.8h62.9c1 0 1.8.8 1.8 1.8s-.8 1.8-1.8 1.8z" fill="#2b2150"/><path d="m864 549h-62.9c-1 0-1.8-.8-1.8-1.8s.8-1.8 1.8-1.8h62.9c1 0 1.8.8 1.8 1.8.1 1-.8 1.8-1.8 1.8z" fill="#2b2150"/><path d="m689.7 437.6c-1 0-1.8-.8-1.8-1.8v-62.9c0-1 .8-1.8 1.8-1.8s1.8.8 1.8 1.8v62.9c0 1-.8 1.8-1.8 1.8z" fill="#2b2150"/><path d="m610.9 470.2c-.5 0-.9-.2-1.3-.5l-44.5-44.5c-.7-.7-.7-1.9 0-2.6s1.9-.7 2.6 0l44.5 44.5c.7.7.7 1.9 0 2.6-.4.3-.8.5-1.3.5z" fill="#2b2150"/><path d="m768.5 470.2c-.5 0-.9-.2-1.3-.5-.7-.7-.7-1.9 0-2.6l44.5-44.5c.7-.7 1.9-.7 2.6 0s.7 1.9 0 2.6l-44.5 44.5c-.4.3-.8.5-1.3.5z" fill="#2b2150"/><path d="m1675.2 1516.7v42.8c0 36-32.9 64.1-73.4 64.1h-970.4c-4.7 0-8.4-3.3-8.4-8v-.2c0-4.7 3.8-8.5 8.4-8.5h4.8l-.7.8v.5h412.7c24.6 0 44.6-19.5 44.6-43.5v-52.2c0-24-20-43.5-44.6-43.5h-264.2v-.2h-152.6c-4.7 0-8.4-3.8-8.4-8.4v-.1c0-4.7 3.8-8.5 8.4-8.5h772.6v26.2c0 2 1.5 3.2 2.6 1.9l24.2-28.1h5.9l24.2 28.1c1.1 1.2 2.6.1 2.6-1.9v-26.2h138.2c40.7-.2 73.5 29 73.5 64.9z" fill="#2bb19e"/><path d="m635.5 1607.7v.5h412.7c24.6 0 44.6-19.5 44.6-43.5v-52.2c0-24-20-43.5-44.6-43.5h-412.7v.5c16.9 20.3 17.7 119.3 0 138.2z" fill="#c2def5"/><path d="m1638.8 1283.6c0 .5 0 1-.1 1.5-.7 4.8-4.9 7.3-9.4 7.3l-11.8-.6c0-.7-.1-1.3-.3-2-1-4.1-3.7-6.9-6.9-9.4h9.8c5.9 0 11-2.2 12.8-5.2.1-.2 2.3 1.2 2.5 1.4 2.2 1.7 3.4 4.3 3.4 7z" fill="#f7af4d"/><path d="m1638.8 1442.4v.2c0 4.8-3.7 9.2-8.4 9.2h-843.7-75.4-51.3c-40.5 0-73.4-29.8-73.4-66.6v-43.7c0-27.3 18.1-50.7 44-61h924.6c.3 3.3.7 6.5 1.8 9.4.3.7.5 1.4.8 2h-481.5c-25.1 0-45.4 19.7-45.4 44.1v52.8c0 11.4 4.5 21.8 11.8 29.6 8.3 8.9 20.3 14.4 33.6 14.4l554 1.1c4.8-.1 8.5 3.8 8.5 8.5z" fill="#f7af4d"/><path d="m1626.2 1291.8c-16.1 23.6-16.4 119.8 1.1 138.4v.5h-163.8v-78h-59.6v78h-329.7c-12.3 0-23.4-4.8-31.6-12.4-8.5-8-13.8-19.2-13.8-31.6v-52.8c0-24.3 20.4-44 45.4-44h482.8c.3.7.5 1.4.8 2 .3.7.7 1.4 1.1 2 2.2 3.3 5.5 5.4 8.8 7.3 10.5 6 21.8 10.3 33.6 12.9 1.6.4 3.4.7 5 0s2.8-2.4 3.9-3.9c3.8-5.4 7.8-11.9 7.3-18.3 0-.7-.1-1.3-.3-2h10.1c.1-.1-.7 1.4-1.1 1.9z" fill="#c2def5"/><path d="m786.7 1451.8-69.1.1c-15.6-19.2-19.4-36.7-19.4-57.7v-56.5c0-21 11.4-45.4 31.5-57.2h55c-24.4 4.6-43.2 28.5-43.2 57.2v56.5c0 29.6 19.8 54 45.2 57.6z" fill="#5970b4"/><path d="m903.9 1451.8-69.1.1c-15.6-19.3-19.4-36.8-19.4-58v-56.8c0-20.6 10.9-44.5 30.2-56.7h52.9c-22.8 6.1-39.8 29.2-39.8 56.7v56.8c0 29.7 19.8 54.3 45.2 57.9z" fill="#5970b4"/><path d="m1351.1 905.3v.2c0 4.8-3.9 8.7-8.8 8.7h-1.2s0-.1.1-.1v-.5h-576.3c-26.1 0-47.3 20-47.3 44.6v53.5c0 24.6 21.2 44.6 47.3 44.6h28.1v18.8h-2.7-15.6c-6.9 0-13.5-.8-19.8-2.3-32.6-7.7-56.6-33.8-56.6-64.9v-44.2c0-37.1 34.2-67.2 76.5-67.2h567.7c4.7 0 8.6 4 8.6 8.8z" fill="#4a5da6"/><path d="m1351.1 1065.6v.2c0 4.8-3.9 8.7-8.8 8.7l-472.4.5v-18.7l472.4.5c4.9.1 8.8 4 8.8 8.8z" fill="#4a5da6"/><path d="m1341.2 914.2c-17.8 21.2-18.6 122.3.1 141.7v.5h-471.4v-84.6h-77v84.6h-28.1c-26.1 0-47.3-20-47.3-44.6v-53.5c0-24.6 21.2-44.6 47.3-44.6h576.4v.5c0-.1 0-.1 0 0z" fill="#c2def5"/><path d="m1589.3 1073.8c-1.9 14-12.1 37.2-18.5 68.3-2.3 11.2-6.3 24.1-9.6 36.8l-927.8-.4c-4.7 0-8.4-2.4-8.4-5.3v-.1c0-2.9 3.8-5.3 8.4-5.3h152.6v-.6h401.4c25.1 0 45.4-12.2 45.4-27.2v-32.6c0-15.1-20.4-27.2-45.4-27.2h-317.5v59.3c0 2.6-2 4.1-3.4 2.5l-35.1-40.7-35.1 40.7c-1.4 1.6-3.4.1-3.4-2.5v-59.5h-158.5v.3c.2.1.4.3.6.5h-1.6c-4.7 0-8.4-2.4-8.4-5.3v-.1c0-3 3.8-5.3 8.4-5.3h792.9c1.5.7 3.1 1.3 4.7 1.9 18.7 6.8 101 5.7 126.5 4.7 8-.3 28.7-1.4 31.8-2.9z" fill="#e6325c"/><path d="m1232.8 1107.3v32.6c0 15-20.4 27.2-45.4 27.2h-553v-.3c18-11.8 17.2-73.7 0-86.5v-.3h158.6v59.3c0 2.6 2 4.1 3.4 2.5l35.1-40.7 35.1 40.7c1.4 1.6 3.4.1 3.4-2.5v-59.3h317.5c25 0 45.3 12.2 45.3 27.3z" fill="#c2def5"/><path d="m1157.6 752.9c-.4-1.2-.9-2.4-1.3-3.6 0 0-40.6-115.3-42.1-119.2-4.7-12.4-15.3-22.5-28.4-25.4l-29.7-6.7c-5.9-1.3-11.8-2.6-17.6-4 2.4.6-.5 5-.5 5.9 0 6.6-4.5 11.6-9.2 15.6-5.6 4.7-11.6 8.6-18.2 11.5-.4.2-2.3-1.1-2.6-1.3-4.2-2.2-8.3-4.7-12.1-7.6-3.2-2.4-6.2-5.2-8.5-8.3-.8-1.2-1.6-2.3-2.2-3.6-1.9-4.3-1.6-8.8-1.6-13.4-1.5.5-3 1-4.4 1.5-3.2 1.1-6.8.7-10 1.9-8.3 3.3-17.3 4.8-25.7 7.9-7.5 2.8-14.2 9.2-20.8 14-4.4 3.2-7.5 7.2-10.2 11.9-5.5 9.6-50.5 104.8-51.5 107.4-1 2.4-2.5 5.4-2.7 8-.3 5.2-.5 10.7.8 15.8 1 4.5 5.9 12.6 9.6 15.5 12.8 10.1 52.7-7.7 52.7-7.7-.4 1.6-5.9 13.1-6.9 16-.4.9-.7 1.8-1 2.7-.1.2-.1.4-.2.5l97.9 35.9s80-26.1 79.8-26.6c28.7-7.5 76.6-24.1 66.6-44.6zm-64.4 1.4.7-32.9 9.5 15.9 2.2 3.6 1.9 3.2z" fill="#e6325c"/><path d="m939.1 912.7c-12.8 1-40.7 1.9-53.5 2.8-2.7.2-5.6.4-8.4-.5-5.5-1.8-8.6-7.1-10.3-11.8-6.9-18.7-4.9-42.7 6.6-57.2l55 18z" fill="#f7af4d"/><path d="m901 894.7c-.2 0-.4 0-.6-.1-.9-.3-1.4-1.4-1.1-2.3 2.8-7.7 3.8-16 2.7-24.7-.1-1 .6-1.9 1.6-2s1.9.6 2 1.6c1.1 9.2.1 18.1-2.9 26.4-.3.7-1 1.1-1.7 1.1z" fill="#2b2150"/><path d="m913.9 896.3c-.2 0-.4 0-.6-.1-.9-.3-1.4-1.4-1.1-2.3 2.8-7.6 3.8-16.2 2.7-24.7-.1-1 .6-1.9 1.6-2s1.9.6 2 1.6c1.1 9.1.1 18.2-2.9 26.4-.3.7-1 1.1-1.7 1.1z" fill="#2b2150"/><path d="m1118.9 836.4c14 16.7 19.3 45.7 14.6 67-1.1 5-3.4 10.5-8.3 11.9-2.5.7-5.1.2-7.6-.2-11.8-2.3-37.5-6-49.3-8.3l.4-53.4c12.5-4.7 48.2-19.3 50.2-17z" fill="#f7af4d"/><path d="m1101.2 890.6c-.7 0-1.4-.4-1.7-1.2-3.6-9.3-5.4-19.1-5.3-29.1 0-1 .8-1.8 1.8-1.8s1.8.8 1.8 1.8c-.1 9.4 1.7 19 5.1 27.7.4.9-.1 2-1 2.4-.3.2-.5.2-.7.2z" fill="#2b2150"/><path d="m1089.5 891.1c-.7 0-1.4-.4-1.7-1.2-3.6-9.3-5.4-19.1-5.3-29.1 0-1 .8-1.8 1.8-1.8s1.8.8 1.8 1.8c-.1 9.4 1.7 19 5.1 27.7.4.9-.1 2-1 2.4-.2.2-.5.2-.7.2z" fill="#2b2150"/><path d="m1079.1 893.9c-.7 0-1.4-.4-1.7-1.2-3.6-9.3-5.4-19.1-5.3-29.1 0-1 .7-1.7 1.8-1.8 1 0 1.8.8 1.8 1.8-.1 9.4 1.7 19 5.1 27.7.4.9-.1 2-1 2.4-.2.1-.5.2-.7.2z" fill="#2b2150"/><path d="m1153.9 851.4-23.4 6.7c-2.7-8.2-6.6-15.7-11.6-21.7-2-2.4-37.7 12.3-50.3 17 1.2 16.9-1.2 37.1-.4 53.3.1 0 .3 3.1.3 3.1l-55.7-18.3-73.7 21-10.7-48.6-66.9-21.9c-17.8-5.8-27.5-24.9-21.6-42.7l.2-.6c3.3-10.1 10.9-17.6 20.2-21.1.5-.2 1.1-.4 1.6-.6 1.6-.5 3.3-1 5-1.2 2.3.5 4.4 2.4 6.6 3.5 4.3 2.1 9.4 1 14.1-.4l123.7 45.4 122.2-38.1c17-5.3 35.7 3.9 41.8 20.6 6.1 16.6-1.1 35.7-17.5 43.2-1.2.5-2.5 1-3.9 1.4z" fill="#2bb19e"/><g fill="#8396cc"><path d="m983 597.9h-21.5l16.8-3.6h4.6c-.1 1.2 0 2.4.1 3.6z"/><path d="m1058.4 597.9h-19.1c0-1.2-.2-2.4-.6-3.6h.2c6.5 1.2 13 2.4 19.5 3.6z"/><path d="m985.9 606.2c.7 1.3 1.6 2.5 2.6 3.6h-61.2c1.4-1.1 2.9-2.1 4.5-3 .4-.2.8-.4 1.2-.6z"/><path d="m1098 609.8h-62.7c.8-1.1 1.6-2.3 2.2-3.6h53.9c2.3 1 4.5 2.2 6.6 3.6z"/><path d="m998.1 618.1c1.9 1.2 3.8 2.4 5.7 3.6h-87.6c.9-1.2 1.8-2.5 2.7-3.6z"/><path d="m1110 621.7h-90c.3-.2.6-.4.9-.5 1.6-1 3.3-2 4.9-3.1h81.5c1 1.2 1.9 2.4 2.7 3.6z"/><path d="m1116.5 633.6h-207.6c.6-1.2 1.3-2.4 2-3.6h203.9c.7 1.2 1.2 2.4 1.7 3.6z"/><path d="m1120.8 645.6h-217.9c.5-.9.9-1.8 1.4-2.8.1-.3.3-.5.4-.8h214.9c.4 1.2.8 2.4 1.2 3.6z"/><path d="m898.9 653.9h17.2v3.6h-18.9c.6-1.2 1.1-2.4 1.7-3.6z"/><path d="m1086.5 653.9-14.1 3.6h-135.5l-14.2-3.6z"/><path d="m1124 657.5h-30.8v-3.6h29.9c.3 1.2.6 2.4.9 3.6z"/><path d="m893.1 665.8h22.9v3.6h-24.7c.6-1.2 1.2-2.4 1.8-3.6z"/><path d="m1039.9 665.8-14 3.6h-42.7l-13.9-3.6z"/><path d="m1127.1 669.4h-33.9v-3.6h32.9c.1.4.2.8.3 1.3.3.8.5 1.6.7 2.3z"/><path d="m887.3 677.8h28.8v3.6h-30.6c.6-1.3 1.2-2.5 1.8-3.6z"/><path d="m1130.6 681.3h-37.4v-3.6h36.3c.3 1.3.7 2.5 1.1 3.6z"/><path d="m881.5 689.7h34.6v3.6h-36.4c.5-1.2 1.2-2.4 1.8-3.6z"/><path d="m1134.7 693.3h-41.5v-3.6h40.2c.4 1.2.9 2.4 1.3 3.6z"/><path d="m875.6 701.6h40.4v3.6h-42.2c.6-1.2 1.3-2.4 1.8-3.6z"/><path d="m1139.4 705.2h-46.2v-3.6h44.7c.5 1.2 1 2.4 1.5 3.6z"/><path d="m869.8 713.5h46.3v3.6h-48.1c.6-1.2 1.2-2.4 1.8-3.6z"/><path d="m1144.8 717.1h-51.5v-3.6h49.8c.5 1.2 1 2.4 1.7 3.6z"/><path d="m864 725.4h52.1v3.6h-53.8c.6-1.2 1.1-2.4 1.7-3.6z"/><path d="m1150.4 729h-48.7c-.6-1.2-1.2-2.4-1.9-3.6h49c.5 1.2 1.1 2.4 1.6 3.6z"/><path d="m935.7 741h-76.7c-.3 0-.7-.1-1-.3-.5-.3-.8-.8-.8-1.5 0-1 .8-1.8 1.8-1.8h74.1z"/><path d="m1152.4 741.1-46.8-.2-2.2-3.6 47.9.2c.4 1.2.8 2.3 1.1 3.6z"/><path d="m944.5 752.9h-85.4c-.3 0-.6-.1-.8-.2-.6-.3-1-.9-1-1.6s.4-1.3 1-1.6c.3-.2.5-.3.8-.3h82.7z"/><path d="m1156.8 752.9h-62.1c1.5-1.3 3.1-2.5 4.7-3.6h57.3c0 .3.1.5.1.8-.1.9 0 1.9 0 2.8z"/><path d="m947.7 761.2c-.2.3-.3.5-.4.5-1.5.4-5 1.9-8.2 3.1h-80c-.3 0-.7-.1-.9-.3-.5-.3-.9-.9-.9-1.5 0-.4.1-.7.3-1 .4-.5.9-.8 1.5-.8z"/><path d="m1155.5 761.2c-.2.7-.4 1.4-.7 2-.2.5-.5 1.1-.7 1.6h-77.9c-.8-1.2-1.9-2.4-3.1-3.5-.1 0-.1-.1-.2-.1z"/><path d="m906.6 773.1c-2 .9-3.9 2-5.8 3.2.3.1.6.3 1 .4h-35.9c-.7-.4-1.3-.9-1.9-1.5-.7-.6-1.3-1.3-1.9-2.1z"/><path d="m973 776.8h-55.6c.3-1.2.5-2.4.7-3.6h40.7z"/><path d="m1147.9 773.1c-1.3 1.3-2.8 2.5-4.3 3.6h-68.2l.7-3.6z"/><path d="m1010.6 788.7h-94.9c-.7-.3-1.5-.6-2.2-.9-.4-.2-.9-.4-1.4-.5.3-.7.6-1.4.8-2.2h93.1c1.6 1.3 3.1 2.5 4.6 3.6z"/><path d="m1127.2 785.1c-2 .8-4.1 1.5-6.1 2.2-1.3.5-2.7 1-4.1 1.4h-43.7l.7-3.6z"/><path d="m1093 797c-3.4 1.2-6.9 2.4-10.5 3.6h-138.2c-2.9-1.2-5.7-2.4-8.6-3.6z"/><path d="m1051.6 808.9s-9.4 2.5-12.4 3.6h-65.9c-2.9-1.2-5.7-2.4-8.6-3.6z"/></g><path d="m759.4 757.2-52 120.6-42.4 11c1.5-3.9 3.3-9.4 3.4-11.7.5-10-.3-19.6-3.9-28.6-1.7-4.4-5.7-5.2-10.3-4.1-.5.1-12.2 1.1-13.4 8.2-4.3 26.8-15.1 29.2-20.4 33.8-1 .8-1.8 2.1-2.3 3.5l-69.5-7.9 39-116.1 96.6 7.5v-.1z" fill="#ea5e83"/><path d="m350.3 1591.1c-.1 8.3-7.6 14.8-14.4 20-1.8 1.4-3.7 2.8-5.8 3s-4.1-.7-5.9-1.7c-13.1-7-25.2-15.8-35.7-26.1-3.4-3.3-6.6-6.8-8.2-11.2-3.4-9.4 1.5-20.1 1.6-30.3.1-6-1.5-11.7-4-17l-19.4 24.3c-1.9 2.4-5.6 2.9-8.4 1h-.1c-2.7-1.9-3.6-5.4-1.9-8l20.8-32.2s1.6-3.8 2.3-5.2c5.6-11.7 13.2-23.2 24.5-29.8 6.2-3.7 13.9-5.3 20.8-4.4l-1.8 1.8c-5.2 8.1-2.8 25.3.6 34.6 1.9 5.3 4.3 9.4 6.8 12.3 4.4 5.1 10.8 7.4 17.4 4.8 1.1-.4 2.2-1 3.3-1.6-5.7 13.9-12.4 28.5-6.3 41.1 4.1 8.7 14 14.8 13.8 24.6z" fill="#f7af4d"/><path d="m345.3 1519.1c-5.4 12.6-21.3 14.5-29.9-9.2-3.4-9.4-5.8-26.5-.6-34.6l3.9-4c-.8 1.5 19.5 18.8 21 20 4.1 3.3 8.5 6.5 12.7 8.8 1 .5 2 1.1 2.9 1.5 0 0-3 5.5-2.2 4.3.4-.7-7.8 13.2-7.8 13.2z" fill="#f5ae9e"/><path d="m546.7 1616.8c-.6 2.1-1.3 4.3-2.9 5.8-1.6 1.4-3.7 1.8-5.8 2-14.8 1.9-29.9 1.7-44.6-.6-4.6-.7-9.4-1.7-13.3-4.3-8.4-5.6-10.8-17.1-16.8-25.4-3.5-4.9-8.2-8.6-13.4-11.5l-1.2 30.9c-.1 3.1-2.9 5.6-6.2 5.6h-.1c-3.4.1-6.1-2.3-6.3-5.4l-2.4-38.1s-.9-4-1.2-5.6c-2.4-12.7-3.2-26.4 2-38.2 3-6.8 7.7-12.2 14.1-15.4-.1.3.4-.1 0 0 2.5 10.7 5.5 22.2 13.7 29.5 8.2 7.4 20.2 9.1 31.2 8 2.7-.3 5.7-.8 7.4-3 .6-.7 1-1.6 1.3-2.5 5 14.6 6.6 26.8 18.2 31.8 8.9 3.8 20.2 3.9 25.9 11.9 4.9 6.8 2.8 16.4.4 24.5z" fill="#f7af4d"/><path d="m500 1550.5c-3.8 6.1-18 6.1-35.5-3.2-8.7-4.6-15.1-18-16-27.6 1-.6 1.9-1.1 2.9-1.6l43 4.5c1.3 2.6 4.6 24.9 5.6 27.9z" fill="#f5ae9e"/><path d="m541 1135.4c-.9 45.6-9.5 114.2-14.8 152.9v.1c-1.7 12.2-3 21.4-3.7 25.9-.1.6-.2 1.2-.3 1.6-.1.7-.2 1.1-.2 1.4v.3l-.1.5-12.8 102-4.2 33.9v.1l-8.6 68.8-4.2-.4-4.1-.4-12.8-1.3-4.2-.4-12.7-1.3-4.2-.4-12.7-1.3-.6-.1 7.2-146.8c-.3.5-2.7 3.9-6.6 9.5-1.2 1.8-2.7 3.9-4.3 6.2-3.6 5.2-8 11.4-12.7 18.2-.4.6-.8 1.2-1.3 1.8-24.9 35.6-60.4 86.2-67.1 94.6-.2.2-.3.4-.5.6-.1.1-.3.3-.3.4 0 0-.1 0-.1.1-1.6.7-12-7.4-15.5-10.3-.5-.4-.9-.7-1.1-.9-1.1-.9-2.1-1.8-3.2-2.8-4.4-3.9-8.6-8.1-12.8-12.3-.1-.1-.5-.4-.9-.8l-.1-.1c-1.3-1.1-3.2-2.6-3-3.2 4.5-10.4 38.8-76.4 50.7-99.6 1.4-2.8 13.2-24.8 17-31.4 4.3-7.6 8.6-15.4 13.8-22.4 1.3-1.7 5-5 7.3-7.1.9-.8 1.6-1.5 1.9-1.8 2.3-2.8 1.5-4.6 1.5-4.6-.6-27.2-2.3-54.6-5.9-81.6 2.1.5 4.2.8 4.8.4 4.2-2.6 4.3-4.2 1.5-6.7-5-4.6-8.1-17.5-8.6-20.2-.4-2-1.8-7.1-3.5-12 0 0 0 0 0-.1-1-6.1-1.8-11.3-2.2-14.8-1.2-8.4-1.6-16.8-1.6-25.3v-1.5c.6.1 1.3.1 2 .2 14.4 1.5 54.1 5.1 79.4 2.3 6.2-.7 13-32.7 13-32.7 19 0 42-3.4 42-3.4s.4 22.1 0 26.7c-.1 1.9 5.1.7 9.4-.5z" fill="#002033"/><path d="m357 1170.8c-8 5.9-12.5 52-12.5 52-3.5 13.9 12.7 29.7 26.3 31.6 9.3 1 20.4-34.6 21.3-42.3 0 0 5 6.3 7.5 8.4 1.9 1.6 8.8 3.4 10.2 2.5 4.2-2.6 4.3-4.2 1.5-6.7-5-4.6-8.1-17.5-8.6-20.3-.8-3.9-5.6-20.3-8.8-23.3z" fill="#f5ae9e"/><path d="m488.4 951.9c-4-12.6-13-22.9-22-32.6-14.3-15.2-29.3-29.8-45.1-43.5l-27 6.5c-.6.1-1.1.3-1.7.5-9.3 2.6-16.9 6.4-18.5 13.7l-20.2 134.2c-3.8 15-3.9 140.2-3.9 140.2h47l.5-28.1c14.4 1.5 54.1 5.1 79.4 2.3 6.2-.7 13-32.7 13-32.7 1.8-41.9-.7-84.7 1.1-127 .3-11.3.8-22.8-2.6-33.5zm-90.6 166.8 1.4-79.2 11.4-47 7.4 45.1z" fill="#2bb19e"/><path d="m649 915.5-67.6 104.9c-2.9 9.3-14 13.2-22.1 7.7l-19.8-13.3c2.9 42.4 7.2 107.4 7.3 118.8-1.7.3-15.3 5.4-15.1 1.9.4-4.6 0-26.7 0-26.7s-6.9-53.9-7.6-61.1c-1.3-13.4 1.5-90.2 1.6-95.7.1-5.2-2-10.1-4-14.9-8.8-20.5-18.1-40.8-27.8-60.9-1.2-2.4-2.4-4.9-4.7-6.5-1.3-1-2.9-1.4-4.5-1.7-.1-.9-.2-1.8-.3-2.6l24.3 6.7c11.8 3.8 26.8 39.4 32 47.8 4.3 7 10.5 16.1 9.8 28.2l6.6 10.5 48.6-62.3z" fill="#2bb19e"/><path d="m515.1 795.7c-.6 8.8-2.5 17.8-6.1 25.8-4 9.8-9.7 18.3-16.7 24.6-2.9 2.6-5.8 4.8-9.1 6.6.9 9.1 1.7 18.3 2.7 27.4.5 4.4 1.3 9.6 0 14-3.6 12.2-21.4.8-27.4-2.8-14.8-8.9-25.1-22.3-25.1-22.3 0-5.3 2-11.5 3.9-20.6-3-2.3-5.9-4.9-8.6-7.7-1-1.2.5-4 .4-5.4-.1-2.4-1.5-4.4-2.5-6.5-1.6-3.4-.1-7.3 1.9-10.5 1.9-3.2 4.4-6.3 4.8-10 .7-7.1-6.7-13.8-4.5-20.6.5-1.6 1.5-3 2.3-4.5 4.3-7.7 1.7-18.7-2.2-23.9l80 2.2c4.8 10.4 7.1 22.3 6.2 34.2z" fill="#f5ae9e"/><path d="m489.8 1112.3c1.8-41.9-.7-84.7 1.1-127 .5-11.2.9-22.7-2.5-33.4-4-12.6-13-22.9-22-32.6-14.3-15.2-29.3-29.8-45.1-43.5 4.2-2.5 8.6-4.3 13.2-5.7 2.9 3.5 12 13.8 24.1 21.1 6 3.6 23.8 15 27.4 2.9 1.3-4.4.5-9.5 0-14-.5-3.9-.9-8-1.2-11.9 1.6.3 3.2.8 4.5 1.7 2.2 1.5 3.5 4.1 4.7 6.5 9.7 20.1 19 40.4 27.8 60.9 2 4.8 4.1 9.7 4 14.9-.1 5.5-2.9 82.3-1.6 95.7.7 7.2 7.6 61.1 7.6 61.1s-23 3.3-42 3.3z" fill="#a4c6e9"/><path d="m536.3 850.9-10.6-.6v-.1c-4.2-.3-8.5-.5-12.8-.7-6.7-.4-14.4-.4-20.6-3.4 7-6.3 12.7-14.8 16.7-24.6 4.9-12 7.3-27.2 5.6-40.2-.9-6.9-2.8-13.6-5.6-20h-1.6s-78.3-2.2-78.4-2.2c1.9.1 3.8 8.9 4 10.3 1.2 7.6-2.1 11.5-4.2 18.2-2.2 6.8 5.2 13.5 4.5 20.6-.7 6.9-10.2 13.2-6.7 20.5 4.2 8.8 2 18.4-5.2 25.1l-58.3-3c-4.2-8.3 2.5-18.3 7.2-26.3 1.6-2.7 4.2-5 5.2-8 3.6-10.2-10.4-22.9 5.2-35.2 21.7-16.9-25.9-33 33-73.8 32.2-22.3 76.2-10.2 82.5 2.1 0 0 14.4 3.5 23.8 13.3 9.9 10.2 13.5 25.1 12.8 39l-4-.1c1.6 3.2 2.6 6.7 2.2 10.2-.9 7.6-8.3 13.8-7.4 21.4.7 6.6 7.5 11.5 7.7 18.1.1 5-3.8 9.9-2.3 14.8.7 2.3 2.4 4.1 3.8 6 4 5.4 5.3 12.4 3.5 18.6z" fill="#f7af4d"/><path d="m452.2 793.5c-.1 0-.1 0-.2 0-1.5-.1-2.7-1.4-2.6-2.9l.3-4.5c.1-1.5 1.3-2.6 2.9-2.6 1.5.1 2.7 1.4 2.6 2.9l-.2 4.6c-.1 1.4-1.3 2.5-2.8 2.5z" fill="#2b2150"/><path d="m494.1 795.6c-.1 0-.1 0-.2 0-1.5-.1-2.7-1.4-2.6-2.9l.2-3.7c.1-1.5 1.3-2.6 2.9-2.6 1.5.1 2.7 1.4 2.6 2.9l-.2 3.7c-.1 1.4-1.3 2.6-2.7 2.6z" fill="#2b2150"/><path d="m472.1 817.2c-2.9 0-6.2-.6-8.5-3-1-1.1-1-2.8.1-3.9 1.1-1 2.8-1 3.9.1 1.7 1.8 6 1.3 8.3 1 0-.1.2-.7.2-.9l-3.1-31.6c-.1-1.5 1-2.8 2.5-3s2.8 1 3 2.5l3.1 31.4c.3 1.6 0 3.2-.9 4.5-.9 1.4-2.4 2.3-4.1 2.5-1.3.2-2.8.4-4.5.4z" fill="#2b2150"/><path d="m484.3 827.4c-2 1.2-4.6 2.1-7.4 2.7-2 .4-4.2.5-6.5.5-4.3 0-8.8-.7-12.5-1.9 2.7 4.4 7.2 5.7 14 4.3 1.5-.3 2.9.7 3.2 2.1.3 1.5-.6 2.9-2.1 3.3-2 .4-4 .6-5.8.6-8.6 0-14.3-4.8-16.8-14.1-.1-.5-.5-2 .5-3.3.5-.7 1.6-1.2 2.5-1.2.8 0 1.5.4 2 1l.2.1c.5.3.8.5 1.2.7 4.3 2.4 13 3.4 19 2.3 2.2-.4 4.2-1.1 5.7-2 1.3-.8 3-.4 3.8.9.7 1.6.3 3.2-1 4z" fill="#2b2150"/><path d="m487.4 813.5c-.4 6.6 4.7 12.4 11.4 12.7 4.2.2 7.9-1.7 10.3-4.7.9-2.2 1.7-4.4 2.4-6.7.3-6.6-4.7-12.2-11.4-12.6-6.6-.4-12.3 4.7-12.7 11.3z" fill="#ee7e94"/><path d="m451.1 811.4c-.4 6.7-6.1 11.8-12.8 11.4-3.9-.2-7.2-2.3-9.3-5.3 1.9-3.1 4.1-6.1 4.4-9.4.3-2.4-.5-4.9-1.5-7.2 2.2-1.5 4.8-2.4 7.7-2.2 6.8.4 11.8 6.1 11.5 12.7z" fill="#ee7e94"/><path d="m499.8 779.5c-.4 0-.7-.1-1.1-.2-2.7-1.1-5.7-1.7-8.6-1.8-1.5 0-2.7-1.3-2.7-2.8s1.1-2.7 2.8-2.7c3.6 0 7.3.8 10.6 2.2 1.4.6 2.1 2.2 1.5 3.6-.4 1.1-1.4 1.7-2.5 1.7z" fill="#2b2150"/><path d="m445.7 775.7c-1.2 0-2.3-.8-2.6-2-.4-1.5.4-3 1.9-3.4 3.5-1 7.2-1.4 10.8-1 1.5.2 2.6 1.5 2.4 3s-1.5 2.6-3 2.4c-2.9-.3-5.9 0-8.7.8-.2.2-.5.2-.8.2z" fill="#2b2150"/><path d="m490.3 720.3c-.3 0-.6-.1-.9-.2-4-2.3-8.1-3.7-11.9-4.3-1-.1-1.7-1.1-1.5-2.1s1.1-1.7 2.1-1.5c4.3.6 8.7 2.2 13.2 4.7.9.5 1.2 1.6.7 2.5-.4.6-1 .9-1.7.9z" fill="#2b2150"/><path d="m408 749c-.2 0-.4 0-.6-.1-1-.3-1.5-1.4-1.1-2.3 2.6-7.6 6.5-12.8 11.8-16 .9-.5 2-.3 2.5.6s.3 2-.6 2.5c-4.5 2.8-7.9 7.4-10.2 14.1-.3.7-1 1.2-1.8 1.2z" fill="#2b2150"/><path d="m412 837.7c-1 0-1.8-.8-1.8-1.8 0-1.7-.3-3.5-.5-5.3-.4-2.9-.8-6-.3-9.1.6-3.5 2.4-6.4 4-9.3 1-1.7 2-3.4 2.7-5.1 2.4-5.9 1.8-12.8-1.6-18.2-.5-.9-.3-2 .6-2.5s2-.3 2.5.6c4 6.4 4.7 14.6 1.8 21.5-.8 2-1.9 3.8-2.9 5.6-1.6 2.7-3.1 5.3-3.6 8.1-.5 2.5-.1 5.2.3 7.9.3 1.9.5 3.8.5 5.8.1 1-.7 1.8-1.7 1.8z" fill="#2b2150"/><path d="m322.6 1472.2v3.3c-.6-.7-1-1-1-1 .3-.8.7-1.5 1-2.3z" fill="#ea5e83"/><path d="m339.6 1434v57.4c-1.5-1.2-2.9-2.4-4.2-3.6v-44.5c1.4-3.2 2.8-6.3 4.2-9.3z" fill="#ea5e83"/><path d="m356.6 1397.9v101.9c-.8 1.2-1.3 1.8-1.3 1.8-1-.4-2-.9-2.9-1.5v-93.5c1.4-3 2.8-5.9 4.2-8.7z" fill="#ea5e83"/><path d="m373.5 1364.2v111.6c-1.5 2.1-2.9 4.1-4.2 6v-109.5c1.4-2.8 2.9-5.4 4.2-8.1z" fill="#ea5e83"/><path d="m390.5 1334v117.9c-1.4 2-2.8 4-4.2 6v-116.7c1.4-2.6 2.8-5 4.2-7.2z" fill="#ea5e83"/><path d="m407.4 1145.1v57.1c-.9-7-4.2-17.3-4.2-17.3v-40.3c1.4.2 2.8.3 4.2.5z" fill="#ea5e83"/><path d="m403.2 1318.4c1.7-2.3 3.1-6.3 4.2-7.6v117.4c-1.4 1.9-2.8 3.8-4.2 5.8z" fill="#ea5e83"/><path d="m424.4 1146.5v257.5c-1.4 2-2.8 4-4.2 6v-263.8c1.4.2 2.8.3 4.2.3z" fill="#ea5e83"/><path d="m441.4 1147.5v232.7c-1.4 1.9-2.8 3.9-4.2 6v-238.9c1.3.1 2.7.2 4.2.2z" fill="#ea5e83"/><path d="m440.8 1517 .6-11.2v11.3z" fill="#ea5e83"/><path d="m458.3 1148.1v370.8l-4.2-.4v-370.5c1.4 0 2.8 0 4.2.1z" fill="#ea5e83"/><path d="m475.3 1148.1v372.5l-4.2-.4v-371.8c1.4-.1 2.8-.1 4.2-.3z" fill="#ea5e83"/><path d="m492.3 1116.8v404.8c0 .3 0 .6-.1.8l-4.1-.4c0-.1 0-.2 0-.4v-393.6c1-3.7 2-7.4 3-11.1.3 0 .8-.1 1.2-.1z" fill="#ea5e83"/><path d="m509.2 1112.8v307.2l-4.2 34v-340.8c1.4-.2 2.8-.3 4.2-.4z" fill="#ea5e83"/><path d="m526.2 1111.1v177.2c-2.4 17.7-4.2 29-4.2 29l-.1.7v-206.5c1.5-.1 2.9-.3 4.3-.4z" fill="#ea5e83"/><path d="m866.6 1141.9-35.1-40.8-35.1 40.8c-1.4 1.6-3.4.1-3.4-2.5v-167.7h77v167.7c0 2.6-2.1 4.1-3.4 2.5z" fill="#f7af4d"/><path d="m1463 1481.7-27.2-31.6-27.2 31.6c-1.1 1.2-2.6.1-2.6-1.9l.9-126.4h58.7v126.4c0 2-1.5 3.2-2.6 1.9z" fill="#313c85"/><path d="m755.3 1594.7-21.1-24.6-21.1 24.6c-.8 1-2 .1-2-1.5v-101h46.4v101c-.2 1.6-1.4 2.5-2.2 1.5z" fill="#e6325c"/><path d="m928.9 1490.4h-233.5c-1 0-1.8.8-1.8 1.8s.8 1.8 1.8 1.8h12.9v97.8c0 1.1.3 2.1.9 2.9 1.5 2 4.4 2.2 6 .3l19-22.1 19.1 22.1c.8.9 1.8 1.4 2.9 1.4 2.3 0 4-2 4-4.6v-97.8h168.8c1 0 1.8-.8 1.8-1.8s-.9-1.8-1.9-1.8zm-174.3 98-18.4-21.3c-1-1.2-3.1-1.2-4.1 0l-18.4 21.3v-94.4h40.9z" fill="#2b2150"/><path d="m679.2 825.8 13.7-34.2 41.7-7.5-15.1 35z" fill="#f7af4d"/><path d="m692.9 809.7c-.9 0-1.6-.6-1.8-1.5-.2-1 .4-2 1.4-2.2l26-5.3c1-.2 2 .4 2.2 1.4s-.4 2-1.4 2.2l-26 5.3c-.1.1-.3.1-.4.1z" fill="#2b2150"/><path d="m1093.2 652.2v102.1c-3.1 1.1-13.4 11-14.9 10.5-1.9-.7-8.7-6.4-10.9-6.7-3.7-.6-7.3-2.8-10.6-5.2-1.7-1.2-3.3-2.5-4.9-3.6-4.1-3.1-7.5-5.5-9.7-3.9-1.9 1.3-.7 5.8-.2 7.6.9 2.9 4 8.8 5.1 11.6l-11.6-3.3c-12.3-4.1-29.7-9.9-36.4-4.8-2.7 2.1-5.7 4.8-6.3 8.4-.4 2.6.5 5.3 2.6 8.3 2.9 4.3 6.7 8.4 10.6 11.8l-.3.1h-.1-.1l-32.4-8.3-14.1-3.6-25-6.4c1.1-.3 3.1-1 5.3-1.9 3.1-1.2 6.7-2.7 8.2-3.1.1 0 .2-.2.4-.5.2-.5.5-1.5 1-2.6 14.1-1.9 29.2-3.4 42.3-9.3 5.8-2.6 10.7-6.7 14.4-11.9 2.7-3.8 5.5-7.7 7.3-11.9 1.4-3 2.1-5.8 2.2-8.3.1-5.1-2.8-9.2-6.9-11.9-1.1-.8-2.4-1.5-3.8-2.2-3.8-1.9-9.8-.5-16.3 2.2-5.5 2.3-11.3 5.5-16.4 8.3-2.3 1.3-4.5 2.6-6.5 3.6-2.7 1.5-5 2.6-6.4 3 .4-.1 1.1-6.2 1.2-6.7.7-2.9 1.9-5.2 1.6-8.3-.2-4-2.2-6.5-6-3.6-1.1.9-2.4 2.2-3.7 3.6-2.4 2.6-5 5.7-7.9 8.3-1.9 1.7-4.1 3.3-6.5 4.2-1.9.7-4.5 4.2-6.3 7.7-.9 1.6-1.7 3.4-2.1 5.2l-13 .6v-79l6.7 1.7 14.1 3.6 32.4 8.3 14 3.6 21.3 5.5 21.4-5.5 14-3.6 32.5-8.3 14.1-3.6z" fill="#f7af4d"/><path d="m1077.2 767.1c-.9-3.4-6.5-8.4-9.8-9-10.5-1.8-20.5-16-25.2-12.7-1.5 1.1-1.2 7.3 1.4 11 1.6 2.2 3.4 8.2 3.4 8.2-7.4-.6-38.5-15.4-48-8.1-10.8 8.3-6.9 14.4 3.9 25.6 12.9 13.6 28.7 17.4 68.1 19z" fill="#f5ae9e"/><path d="m948.7 758.7c46.5-6.4 50.8-12 61-27.8 8.4-13.1 6.7-21.9-5.5-27.9-10.7-5.3-38.4 15.2-45.5 17.2 0 0 .7-6.2 1.8-8.7 1.9-4.1 1-10.3-.7-11.1-5.2-2.3-12.4 13.6-22.3 17.3-3.2 1.2-8.3 10.4-8.5 14.1z" fill="#f5ae9e"/><path d="m954.5 516.7 4.5 31.8c-6.2.9-10.2-13.6-10.2-13.6-5.2-12.2-.2-17.7 5.7-18.2z" fill="#f5ae9e"/><path d="m1078.8 532.2c0 .1-2.7 16-14 16.3-4.6 15.3-14.4 28.5-26.8 36.5v14.8c0 15-27.5 27.2-27.5 27.2s-26.9-12.1-26.9-27.2v-15.8c-13.5-10.7-21.6-29.7-24-52 0 0 0 0 0-.1 1.8-17.2 6.9-47.9 17.2-58.3 3-3 7.8-2.4 10.1 1.1 1.8 2.9 4.3 5.5 5.5 6.4 6.2 4.4 16 5.6 28.3-.7 8.8 5.1 26 7.7 33.5-4.2 11.9 8.4 10.6 48.9 12.2 65l5.6-24 .1-1.6c1.1-.1 2.2 0 3.1.4 6 2.1 5.3 8.2 3.6 16.2z" fill="#f5ae9e"/><path d="m989.2 532.8c-1.5 0-2.7-1.2-2.7-2.7v-6.1c0-1.5 1.2-2.7 2.7-2.7s2.7 1.2 2.7 2.7v6.1c.1 1.5-1.1 2.7-2.7 2.7z" fill="#002033"/><path d="m1040.3 532.8c-1.5 0-2.7-1.2-2.7-2.7v-6.1c0-1.5 1.2-2.7 2.7-2.7s2.7 1.2 2.7 2.7v6.1c0 1.5-1.2 2.7-2.7 2.7z" fill="#002033"/><path d="m1029 549.4c0 6.9 5.6 12.5 12.5 12.5s12.5-5.6 12.5-12.5-5.6-12.5-12.5-12.5c-7 0-12.5 5.6-12.5 12.5z" fill="#ee7e94"/><path d="m970.4 548.5c0 6.9 5.6 12.5 12.5 12.5s12.5-5.6 12.5-12.5-5.6-12.5-12.5-12.5-12.5 5.6-12.5 12.5z" fill="#ee7e94"/><path d="m1075.1 480.5-3 36.8-5.6 24c-1.5-16.1-.3-56.6-12.2-65-7.5 11.9-24.7 9.3-33.5 4.2-12.3 6.2-22.1 5-28.3.7-1.2-.9-3.7-3.5-5.5-6.4-2.3-3.6-7.1-4.1-10.1-1.1-11.8 11.8-16.9 50.3-17.9 64.7l-4-20.9-2.2-38c0-16.7 16.4-41.1 34.1-41.1h2.2c6.4 0 15.1 1.8 19.5-2.8 2.8-2.9 7-4.8 11.7-4.8 6.5 0 12.1 3.7 14.4 8.8.4-.1.9.2 1.1-.1 7.2-8.8 19.7 2.6 17.9 6.5 7.9-2 21.4 20.3 21.4 34.5z" fill="#002033"/><path d="m1012.5 574c-4.9 0-9.7-1.8-12.9-5-1.1-1.1-1.1-2.8 0-3.9s2.8-1.1 3.9 0c2.2 2.2 5.7 3.4 9.2 3.4 3.6-.1 6.8-1.4 9.1-3.8 1-1.1 2.8-1.1 3.9-.1s1.1 2.8.1 3.9c-3.3 3.5-7.9 5.4-13 5.5 0-.1-.1 0-.3 0z" fill="#002033"/><path d="m1311.7 1354.6h-68.6c-1 0-1.8-.8-1.8-1.8s.8-1.8 1.8-1.8h68.6c1 0 1.8.8 1.8 1.8s-.8 1.8-1.8 1.8z" fill="#002033"/><path d="m1351.1 1178.8h-29.8l.2-.5c11.6-34.7 11.7-72.2.2-107l-.4-1.3h29.8l.4 1.3c11.4 34.7 11.4 72.3-.2 107z" fill="#2bb19e"/><path d="m1405.2 1178.8h-29.8l.2-.5c11.6-34.7 11.7-72.2.2-107l-.4-1.3h29.8l.4 1.3c11.4 34.7 11.4 72.3-.2 107z" fill="#2bb19e"/><path d="m1459.7 1178.8h-29.8l.2-.5c11.6-34.7 11.7-72.2.2-107l-.4-1.3h29.8l.4 1.3c11.4 34.7 11.4 72.3-.2 107z" fill="#2bb19e"/><path d="m1738.1 1289.2c-.2 1.8-.5 3.6-1.5 4.8s-2.6 1.8-4.1 2.1c-10.7 2.9-21.7 4.2-32.8 3.8-3.5-.1-7.1-.4-10.3-2.2-6.8-3.7-9.8-12.5-15.1-18.5-2.2-2.5-4.9-4.5-7.7-6.1l2.2 21.3c.6 5.7-8.1 6.9-9.2 1.4 0 0-5.3-27.1-5.3-27.4-1.3-.4-2.7-.9-3.6-1.9-.8-.9-1.2-2.1-1.6-3.3-3.1-9.4-5-19.8-2.9-29.3 4.6-.3 9.6-1 14.5-1.8 3.1 4.5 6.9 8.5 10.6 10.9 26.9 17.2 32.2 13.2 30.5 4.5 3.3 7.1 7.3 13.2 12.9 15.5 6.8 2.8 15.3 1.1 20.4 6.9 4.4 4.9 3.8 12.7 3 19.3z" fill="#e6325c"/><path d="m1671.4 1242.9c-3.8-2.4-7.6-6.4-10.6-10.9 14.7-2.4 29-6.1 32.4-6.7l.2 2c.1.4.2.8.4 1.2.8 1.4 1.6 3 2.5 4.7 0 0 0 .1.1.1 2.3 4.5 4.7 9.6 5.4 13.8v.1.1c1.7 8.9-3.5 12.9-30.4-4.4z" fill="#f5ae9e"/><path d="m1597.7 1231.8-.9 2.3c-.8 18.9-3.5 51.5-26.3.4-2.5-5.6-5.6-15.7-6.3-23.9 9.9 6.5 21.4 13 30 19.4 1.1.7 2.3 1.6 3.5 1.8z" fill="#f5ae9e"/><path d="m1693.3 1225.3c-4.8.9-34.1 8.5-52.9 8.8 0 0-8.7-46.5-14.2-61.4-9.6 21.1-21.6 43.2-24.4 56.4-.3 1.2-1.4 2-2.6 2.4-1.7.6-3.5-.5-5-1.7-11.2-8.4-27.5-17-38.7-25.4 2.7-19.3 11.4-43.3 15.3-62.4 6.4-31.1 16.7-54.3 18.5-68.3-3.1 1.5-23.8 2.6-31.9 2.9-25.5 1-107.8 2.1-126.5-4.7-17.4-6.4-33.6-18.9-38.9-36.6-6-20.2 3.4-41.5 12.5-60.6 3.9-8 9.5-28.5 12.9-35.6h.3c1 .3 2 .7 2.9 1-3 7.1-6.3 14.4-10 22 0 0 .1.1.3.2 3.9 2.2 44.3 23.8 87.9 27.4 30.6 2.5 39-10.5 41.1-19.8.2-.8.3-1.6.4-2.3 0-1.1 0-2.4.2-4 0-.2 0-.4 0-.5 0 0 0 0 0-.1.1-1.1.2-2.7.3-4.4 22 4.3 81.1 23.2 112.9 34 6.1 2 18.1 9.4 21.6 14.8 8.1 12.3 8.5 132 10 151.5 2 22.6 4.9 33.5 8 66.4z" fill="#f7af4d"/><path d="m1585.7 919.9-22.4 7.9c-6.1 2.2-12.8-1.1-15-7.2l-1.9-5.5c-1.7 4.7-4.4 26.2-4.6 31-.7 11.6 1.2 25.6-7.5 34.8-8.8 9.3-23.5 9.8-35.4 8.9-43.7-3.6-84-25.2-87.9-27.4-.2-.1-.3-.2-.3-.2 3.7-7.6 7-15 10-22-1.8-.6-3.6-1.2-5.5-1.8-6.2-2.1-12.2-4.1-12.8-4.4-8.5-3.5-12.8-13.4-11.3-23.3l16.6-97.6 3.4-22.2c.1-3.1 1-5.8 2.3-8.1 2.8-4.8 7.7-8.1 12.6-10.3 2.3-1.1 30.2-11.9 33.8-13.4 1-.4 2.2-.8 3.4-1.1-.1.2-.1.3-.1.3-.9 8.9 6.8 16.2 6.8 16.2 19.4 14.3 39.8 7.4 41.6-8.8l.2-.3-.5-6.2c5.2.7 8.3 1.6 8.3 1.6 13.4 1.8 20.1 4.1 24.4 19.7.7 2.7 2 5.4 3.4 8l-7.5 49.3-14 5.6 10.7 23.6.5 5-7.9 36.6z" fill="#002033"/><path d="m1556.8 655.7c-2.4 3.6-8.3 5.8-12.4 7.5-10.5 4.2-24.7-2.5-35.8-4.3-25.4-4-40.2 18.8-40.2 18.8-2.8-10.6-13.2-12.9-18.7-9-2.9 2-4.5 5.8-2.9 11 .7 2.3 1.3 4.2 2 5.8 3.4 8.7 6.4 9.4 9 26.3-3.6-2.9-7-6.1-10-9.5-.6 6.1-1.8 12.2-4.6 17.7-6 11.7-18.8 19.1-32 21.1s-26.8-1-39.3-5.7c12.1-5.3 24.2-13.8 27-26.4 2.4-11-1.7-23.1-3.1-34-1.3-9.7-2.1-19.5-1.5-29.3 1.2-18.9 8.8-37.3 28.5-43.7 11.3-3.7 24.3-2.1 34.3 4.1.2.1.4.3.6.4s.3.2.5.4c.1-.1.3-.3.5-.4 14.9-9.4 32.1-9.6 48.7-5.1 23.8 6.5 31.2 20.6 33.2 21.6 10.6 4.9 24 20.8 16.2 32.7z" fill="#ea5e83"/><path d="m1555.8 686.5c-.8 5.6-1.9 11.1-3.3 16.3-1.5 5.6-3.4 10.8-5.6 15.7-7.9 17.6-20.1 30.1-36.5 31l1.1 16c-1.7 16.2-22.1 23.1-41.6 8.8 0 0-7.7-7.3-6.8-16.2 0 0 6-13.2 7.5-28.1-5.4-5.6-10-12.1-13.6-18.7.2.2.4.4.7.5-3-20.1-6.6-17.4-10.9-32.1-4.5-15.2 17.4-18.1 21.6-2 0 0 14.8-22.8 40.2-18.8 11.1 1.8 25.4 8.4 35.8 4.3 4.1-1.6 10-3.9 12.4-7.5 1.2 8.8.7 19-1 30.8z" fill="#f5ae9e"/><path d="m1519.1 730.4c-4.5 0-9.2-1.4-12.1-3.8-.3-.3-.6-.5-.9-.8-1.1-1-1.3-2.9-.3-4s2.6-1.3 3.7-.3l.2.2c.4.4.6.6.9.8 2.6 2.2 8.1 3.2 11.9 2.1 1.4-.4 2.7-1 3.7-1.8 1.2-1 2.9-.8 3.9.4s.8 2.9-.4 3.9c-1.6 1.3-3.6 2.3-5.7 2.9-1.6.2-3.3.4-4.9.4z" fill="#002033"/><path d="m1479.6 642.1c-.5 0-1.1-.2-1.4-.7-.6-.8-.5-1.9.3-2.6 4.6-3.7 10.3-5.5 17.4-5.6 1.1 0 1.8.8 1.9 1.8 0 1-.8 1.8-1.8 1.9-6.2.1-11.2 1.7-15.2 4.8-.4.3-.8.4-1.2.4z" fill="#002033"/><path d="m1406.1 731.1c-.7 0-1.5 0-2.3-.1-1-.1-1.7-1-1.7-2 .1-1 1-1.7 2-1.7 12.6 1.1 21.1-8.8 25.1-14.9.6-.8 1.7-1.1 2.5-.5s1.1 1.7.5 2.5c-4.1 6.5-12.9 16.7-26.1 16.7z" fill="#002033"/><path d="m1507.3 708.7c-.6 6.8-6.5 11.8-13.3 11.2s-11.8-6.5-11.2-13.3 6.5-11.8 13.3-11.2c6.7.5 11.7 6.5 11.2 13.3z" fill="#ee7e94"/><path d="m1460.4 689.4c-.5 0-1.1-.2-1.5-.7-2.4-3.2-4.7-7.7-4.5-10.7.1-1 1-1.8 2-1.7s1.7 1 1.7 2c-.1 1.7 1.5 5.3 3.7 8.2.6.8.5 1.9-.3 2.6-.3.2-.7.3-1.1.3z" fill="#002033"/><path d="m1544.5 694.3c-.1 0-.2 0-.2 0-1.5-.1-2.6-1.5-2.5-3l.3-3.8c.1-1.5 1.5-2.6 3-2.5s2.6 1.5 2.5 3l-.3 3.8c-.2 1.4-1.4 2.5-2.8 2.5z" fill="#002033"/><path d="m1502.1 692.8c-.1 0-.2 0-.2 0-1.5-.1-2.6-1.5-2.5-3l.3-3.5c.1-1.5 1.5-2.6 3-2.5s2.6 1.5 2.5 3l-.3 3.5c-.1 1.5-1.3 2.5-2.8 2.5z" fill="#002033"/><path d="m1550.2 701.2c-.2.9-.5 1.9-.8 2.8-1.6 5.5-3.6 10.7-5.9 15.5-.7 1.5-1.5 3-2.2 4.5-5.1-1.7-8.4-7.2-7.7-13.2.9-6.8 6.6-11.6 12.8-10.8 1.4.1 2.7.5 3.8 1.2z" fill="#ee7e94"/><path d="m1701.3 760.2-29.7 142.1-52 23.9-.7.3-33.2-6.6-56.8-11.3 5.6-36.3 59.2-11.7c5.5-1.1 9.2-7 8.1-13.2v-.1c-2.4-14.4-25.9-20.6-42-17.5l-20.2 8.1 7.5-49.3 2.9-19.1 90 17.9z" fill="#8ecfd4"/><path d="m1593.7 860.5-55.5 11-12.5-28.1 34.1-13.7c16.1-3.2 39.5 3 41.9 17.5v.1c1.2 6.2-2.4 12.1-8 13.2z" fill="#f5ae9e"/><path d="m1687.6 828.8c.6-7.2-14.6-5.2-18.8.7-2.5 3.5-4.9 7.1-6.1 11.3-2.5 8.8-2.5 35.6 3.6 36.1 4.5.4 9 .3 13.4-.2.6-.1 2.4-1.6 2.5-2.2 2.1-8.1 4.2-31.6 5.4-45.7z" fill="#f5ae9e"/><path d="m1647.9 811.5c-.7 0-1.4-.4-1.7-1.1-.4-.9 0-2 1-2.4l34.7-14.5c.9-.4 2 .1 2.4 1s0 2-1 2.4l-34.7 14.5c-.2.1-.4.1-.7.1z" fill="#002033"/><path d="m1645.6 820.1c-.7 0-1.4-.4-1.7-1.1-.4-.9 0-2 1-2.4l34.7-14.5c.9-.4 2 0 2.4 1 .4.9 0 2-1 2.4l-34.7 14.5c-.2.1-.5.1-.7.1z" fill="#002033"/><path d="m1023.4 732v-33.5l55.7-15.2v33.8z" fill="#c2def5"/><path d="m1052.4 703.4c-.8 0-1.5-.5-1.8-1.3-.3-1 .3-2 1.3-2.2l20.5-5.6c1-.3 2 .3 2.2 1.3.3 1-.3 2-1.3 2.2l-20.5 5.6c-.1 0-.3 0-.4 0z" fill="#002033"/><path d="m1028.7 709.9c-.8 0-1.5-.5-1.8-1.3-.3-1 .3-2 1.3-2.2l16-4.4c1-.3 2 .3 2.2 1.3.3 1-.3 2-1.3 2.2l-16 4.4c-.1 0-.2 0-.4 0z" fill="#002033"/><path d="m1029.2 721.4c-.8 0-1.5-.5-1.8-1.3-.3-1 .3-2 1.3-2.2l44.2-12.2c1-.3 2 .3 2.2 1.3.3 1-.3 2-1.3 2.2l-44.2 12.2c-.1 0-.3 0-.4 0z" fill="#002033"/><path d="m618 901.1 24.9 11.7c4.3-6.8 18.1-14.3 21.1-21.7 1.5-3.7 4.1-11.2 4.3-14.1.6-10-.3-19.6-3.9-28.6-1.7-4.4-5.7-5.2-10.3-4.1-.6.1-12.3 1.1-13.4 8.2-4.3 26.8-15.1 29.2-20.4 33.8-3.1 2.9-4 9.6-2.3 14.8z" fill="#f5ae9e"/><path d="m769.6 527.6c-2.8-39.4-34.6-71.2-74.1-74-46.8-3.3-85.9 33.8-85.9 79.9 0 20 7.4 39.1 20.8 53.8 10.3 11.3 16.6 24.6 18.7 39.3.7 4.8 4.8 8.4 9.6 8.4h62.3c4.9 0 8.9-3.5 9.6-8.4 2.1-14.8 8.5-28.3 18.4-39.2 14.8-16.3 22.1-37.5 20.6-59.8zm-24.7 56.2c-10.7 11.7-17.5 26.2-19.8 42.1-.3 2.1-2 3.7-4.2 3.7h-29.3v-45.4l24.9-29.7c.7-.8.5-1.9-.2-2.6-.8-.7-1.9-.5-2.6.2l-24 28.6-24-28.6c-.7-.8-1.8-.9-2.6-.2s-.9 1.8-.2 2.6l25 29.7v45.4h-29.3c-2.1 0-3.9-1.5-4.2-3.7-2.2-15.8-9-30-20-42.2-12.5-13.7-19.3-31.5-19.3-50.1 0-41.1 33.5-74.6 74.6-74.6 1.8 0 3.6.1 5.4.2 36.7 2.6 66.4 32.2 69 68.9 1.5 20.7-5.4 40.4-19.2 55.7z" fill="#2b2150"/><path d="m1799.8 1623.5h-172.9c29.7-9.2 51.1-34.5 51.1-64.1v-42.8c0-28.6-19.9-53.1-48.1-63h2c6.3 0 11.2-5 11.2-11.5 0-6.3-5-11.4-11.2-11.4-.1 0-.1 0-.2 0-.1-.1-.2-.3-.3-.4-16.6-17.6-16.8-112.7-.7-135.2 6-.1 10.9-5.2 10.9-11.5 0-4-2.1-7.6-5.2-9.6.1-.4.1-45.6.1-45.6.7 3.7 1.2 6.1 1.2 6.2.8 2.5 3.1 2.2 5.2 2.3-.9 9.2.8 18.3 3.6 27.1.4 1.2 1 2.9 2.2 4.2 1 1.1 2 1.7 3.1 2.1l5.1 25.9c1.8 9 15.6 6.9 14.7-2.2l-1.5-15.3c3 2.5 5.2 5.9 7.2 9.2 2.9 4.6 6 9.4 10.9 12.1 3.8 2.1 7.9 2.4 11.4 2.5 11.3.5 22.8-.8 33.6-3.8 1.4-.4 3.8-1 5.4-3 1.6-1.9 1.9-4.4 2.1-6.2 1-7.9 1.3-15.9-3.5-21.5-3.8-4.4-9.2-5.3-14-6-2.7-.4-5.2-.8-7.4-1.7-4.7-1.9-8.3-7.5-11.4-13.9-2.1-4.5-7.4-17.6-8.4-19.4-.4-.8-.2-2.6-.1-2.5 0-9.4-2.4-19.4-3.8-28.8-1.7-12.4-3.1-22.2-3.8-35.8 0-.4-.8-18.7-1.2-34.1-1.3-49.2-2.9-94.6-6.8-112.9-2.3-10.6-12.1-17-21.4-21.3-6.8-3.2-14.3-5.2-21.5-7.5-11.5-3.8-48.6-15.4-55.5-17.5-1.4-.4-38.6-10.5-38.6-10.5.6-9.1 2.4-23 3.8-31.7 2.6 4.1 7.2 6.6 12.1 6.6 1.6 0 3.3-.3 4.8-.8l21.7-7.6s32.8 6.5 33 6.5c.4 0 53.8-24.4 53.8-24.4.8-.4 1.4-1.1 1.5-1.9l4.9-23.5c.3 0 .5 0 .7-.1 1.7-.2 4.4-2.5 4.8-4.2 2.2-7.9 4.2-29.5 5.5-46.1 0-.7 0-1.4-.1-2l13.9-66.2c.2-1-.2-2-1-2.7s-1.9-.8-2.8-.4l-60.4 26.6-89.1-17.8c-.7-.1-1.5 0-2.1.4s-1 1.1-1.1 1.8l-1.2 8.1c-.8-1.8-1.5-3.5-2.1-5.3-4.3-13.5-24.2-14.2-28.1-14.2-.9 0-2.3.3-2.3.3l-.4-5.9c14.9-2 27.6-13.3 36.1-32.3 2-4.5 3.7-9.2 5.2-14.3 5.7-2.6 9.9-8.1 10.4-14.6.5-5.5-1.6-10.6-5.3-14.1.7-7.6.7-14.4 0-20.3 2.3-4.2 2.8-9 1.4-14.1-2.8-9.7-11.9-18.3-19.3-21.6-.3-.3-.8-.8-1.4-1.5-3.8-4.5-12.9-14.9-32.5-20.4-19-5.2-36.1-3.6-50 4.8-10.5-6.4-24.6-8.1-36.3-4.3-18.1 5.9-28.8 22.3-30.3 46.2-.5 8.6-.1 17.8 1.5 29.8.4 3.1 1.1 6.4 1.7 9.6 1.5 7.9 3.1 16.2 1.5 23.5-2.7 12.2-15.3 20.1-25.5 24.5-2.2 1-2.1 4.2.1 5 11.3 4.3 22 6.5 31.7 6.5 3.1 0 6.1-.2 9-.7 15.1-2.2 28.1-10.9 34.1-22.6 2.1-4.1 3.3-8.4 4.1-12.9 1.7 1.6 3.4 3.2 5.3 4.8 3.4 6.3 7.7 12.5 12.8 18-1.3 11.4-5.3 21.7-6.6 24.9 0 0-26 10.1-27 10.5-8.1 2.7-25.1 8.4-25.7 24 0 0-20.9 124.3-20.9 124.5-1.7 9.8 8.3 18.7 16.1 22.8.8.4 9.7 4.3 10 3.5-1.4 3.7-3.1 8.6-4.8 13.8-2.3 7.1-4.8 14.5-6.7 18.5-9.8 20.3-18.8 41.9-12.6 62.6 2.3 7.5 6.5 14.4 11.9 20.1 4 4.3 8.7 8 13.7 11.1h-61.2c.1-.5.1-1.1.1-1.7 0-6-4.6-10.9-10.4-11.4 0-.1-.1-.2-.2-.3-17.3-17.8-17.5-114.3-.7-137 6.2-.1 11.4-5.2 11.4-11.6 0-6.3-5.2-11.5-11.5-11.5h-204.7c.9-11.2-.4-23-3.7-33.8l20.7-5.9c16.9-4.8 27.7-22.7 25.4-39.8-2.4-18.2-17.9-32.4-36.4-32.4-.8 0-1.6 0-2.4.1 8.8-4.9 15.8-10.4 18.8-16.4 2.3-4.6 2.3-9.2.2-13.5l-42.5-120.4c-4.1-14.9-16.1-26.3-31.2-29.7l-45.6-10.3v-3c12.5-8.1 22-21.4 26.4-37.6 10.9-2.1 14-16.6 14.3-18.2 1.4-6.4 3.6-16.2-5.3-19.3-.3-.1-.7-.2-1.1-.3l2.7-32.7c0-14.9-10.5-34.4-22.1-36.8-.1-1.6-.6-3-1.5-4.5-2.4-3.9-7.5-6.5-12.4-6.2-2.5.1-4.8 1-6.4 2.5-3.3-4.6-8.9-7.4-15.1-7.4-5.2 0-10.2 2-13.7 5.6-2.6 2.7-7.9 2.4-13 2.1-2.3-.2-4.5-.2-6.8-.2-18.6 0-36.8 25.1-36.8 44l2 34.6c-2.8.7-5.1 2.4-6.5 4.7-1.7 2.9-3 8.1.7 16.7.9 3 4.8 15.4 12.2 15.5 3.8 15.2 11.8 27.6 22.5 35.6v2.9c-3.3 1.2-8.2 2.5-13.8 4-11.7 3.1-26.3 6.9-36.4 12.5-8.6 4.7-16.9 16-18.6 18.5-.1.1-47.6 97.1-54 109.1-1.7 3.3-3.7 13.6-2.6 23.9.7 6.2 2.7 11.4 5.7 16.7-.3-.4-7.1 3.3-7.7 3.7-2.5 1.5-4.9 3.3-7 5.4-13.4 12.9-14.7 34.8-3.1 49.3 4.4 5.6 10.5 9.8 17.2 12l8.4 2.7c-8 12.3-10.9 29.7-7.6 46.3h-86.8c-43.7 0-79.2 31.4-79.2 69.9v44.2c0 25.1 15 47.1 37.5 59.5h-99.6c-6.3 0-11.2 3.5-11.2 8.2 0 4.5 4.9 8 11.2 8h.6c6.9 6.7 11.4 24.8 10.8 44.4-.5 17.8-6.8 34.4-12.4 37.1-5.8.3-10.2 3.8-10.2 8.1 0 1.1.3 2 .8 3h-36c-4.5 0-8.1 3.7-8.1 8.1v90.8c0 4.5 3.7 8.1 8.1 8.1h31c-21.8 12.2-36.4 34.1-36.4 59.1v43.8c0 28.4 18.8 52.9 45.7 63.6-4.1 1.6-7 5.7-7 10.5 0 6.2 5 11.2 11.2 11.2h2.2c15.9 20.1 16.4 112.3 1.2 133.6h-3.4c-6.2 0-11.2 4.2-11.2 10.6 0 3.1 1.3 5.9 3.4 8h-76.9c1.5-1.9 2.2-4.1 2.7-5.9 2.7-9.5 4.6-19.4-.7-26.9-6.3-8.9-17.9-9-27.1-12.9-2.2-1-4.3-2.4-6-4.2-2.7-3-4.5-6.9-6.2-11.8-2.7-7.8-5.8-15.7-8-23.7-.5-1.7-.9-3.5-1.3-5.2-.3-1.1-2.4-7.6-1.8-8.3.4-.4.7-1 .8-1.6l25.7-205.3.2-1.4c3.1-21.2 11.9-82.6 16.3-136.2.1-1.4.2-2.7.3-4 1.1-13.4 2.1-38.4 2-38.7.5-.1 3.3-1 3.6-1.1 1.4-.2 2.4-1.4 2.3-2.7-.1-10.8-3.8-67.8-6.9-113.4l15.1 10.2c4.6 3.1 10.7 3.8 15.9 1.8 4.9-1.9 7.8-6.2 10.2-10.6 0 0 67.3-104.5 67.4-104.6.9-1.4.3-3.3-1.2-4l-2.8-1.2c1.9-2 4.5-4.2 7.1-6.3 5.1-4.2 10.3-8.6 12.2-13.2.1-.3.3-.7.4-1.1l41-10.7c.8-.2 1.5-.8 1.8-1.5 0 0 51.9-120.3 52-120.6.8-2-.9-4.2-3.1-3.8l-75.1 16.1-95.8-7.5c-1.2-.1-2.4.7-2.8 1.9 0 0-38.9 115.8-39 116.1-.5 1.6.5 3.4 2.3 3.6l66.4 7.6c-.3 1.5-.4 3.1-.3 4.7l-7.5-3.4c-1.1-.5-2.5-.1-3.3.8l-46.2 59.2s-4-6.2-4.2-6.5c-.9-1.5-.3-6.3-.7-8.3-.5-2.8-1.4-5.4-2.5-8-2.2-5.1-5.4-9.6-8.1-14.4-2.8-4.9-14.2-25.7-17-31.3-3.1-6.3-6.3-12.8-15.5-15.7l-22.4-6.1-1-9.3c2.4-1.5 4.8-3.1 7-5.1 0 0 19.6 3.2 19.8 3.2 3.1 0 3.8-4.9.4-5.4l-15.2-2.5c1.6 0 6.6-8.6 7.4-9.8 3.7-5.8 6.5-12.3 8.6-18.9 2-6.3 3.3-12.9 3.7-19.7.8-10.6-.9-21.5-4.7-31.7l14 .4c2.5 5.8.7 10.5-2.2 15.8-4.7 8.6-5 14.9.3 23.3 2.1 3.4 3.5 6.9 3 11-.5 4.2-3.1 8.1-1.8 12.5 1.1 3.6 4.1 6.1 5.8 9.4.4.9 3.2 11.5 1.8 11.4l-8.2-.5c-3.4-.2-3.9 5.2-.3 5.5l10.6.6h.1c1.2 0 2.3-.8 2.7-2 1.2-4.6 1.1-9.4-.3-13.9-1.5-4.5-5.6-7.8-6.8-12.1-1.4-4.6 1.9-8.5 2.4-12.9.4-4.4-1.9-8.4-4.2-12-4.2-6.6-3.8-10.9-.1-17.8 3.2-5.8 5.4-11.7 3.3-18.2 1.3 0 2.5-1.2 2.6-2.6 1-16.3-4-31.3-13.5-41.1-8.4-8.7-20.3-12.7-24-13.8-5.5-8.4-23.7-14.9-42.5-14.9-11.3 0-27.9 2.3-43.3 12.9-38.2 26.4-33.3 43.8-29.7 56.5 2.1 7.6 3.4 12.1-3.4 17.4-11.3 8.8-8.9 18.3-7 25.9 1.1 4 1.9 7.5.9 10.5-1.2 3.4-4.3 6.3-6.1 9.4-4.8 8-10.7 18.1-6.1 27 .4.9 1.3 1.5 2.3 1.5l58.3 3h.1c.7 0 1.4-.3 1.9-.7 3-2.8 5.2-6.3 6.6-10 1.4 1.3 2.8 2.5 4.3 3.7-.4 1.9-3.1 16.4-3.7 19.4 0 .1-28 7.9-39 11.3-10.1 2.9-18.5 7.1-20.4 15.9l-20.2 134.3c-3.8 15.1-4 135.7-4 140.8 0 .7.3 1.4.8 1.9s1.2.8 1.9.8h1.8c-6.1 12.6-9.2 41.7-9.9 48.8-1.4 5.9 0 12.2 4.2 18.5 2.9 4.3 6.7 8.1 11.1 11 3.9 2.6 9.2 5.4 14.1 5.4 10.3 0 19.2-26.5 22.4-39 1.3 1.5 2.6 3.1 4.2 4.4.5.4 4.6 2.1 4.7 2.3.8 6.4 2.2 22 2.2 22 1.9 20.1 3 39.2 3.4 58.4.1 3.5 5.6 3.4 5.5-.1-.4-19.3-1.5-38.5-3.4-58.8 0 0-1.4-15.2-2-20.4 1.2.1 2.3-.1 3.1-.5 2.2-1.4 4.4-3.1 4.7-5.6.2-2.4-1.4-4.2-2.7-5.4-3.8-3.5-6.9-14.1-7.8-18.8-.3-1.4-3.9-15.6-7.7-22.2 1.1-.3 1.9-1.3 1.9-2.5l.4-25.1c11.7 1.2 33.7 3 53.9 3 8.9 0 16.7-.4 23.1-1.1 6.5-.7 11.6-17.7 14.9-32.7 14.4-.1 30.4-2.1 37-2.9.1 8.1.2 20.2 0 23.3-.2 2.8 2.3 4.2 4.7 4.2 1.3 0 2.9-.3 4.5-.6-1.6 58-14.6 149.8-18.6 176.7-.1 1-.2 1.5-.2 1.5l-25.4 202.5-50.3-5.3 7-143.5c1.5-2.2 26.5-37 27-38.3 3-6.1 7.1-22.5 13-51.7 1.4-6.8 9.6-50.9 12.2-65.1 1.6-9 7.4-40.3 8.6-46.5.7-3.5-4.7-4.5-5.4-1-1.2 6.1-6.9 37.5-8.6 46.5-2.6 14.2-10.9 58.2-12.2 65-5.6 28-9.8 44.9-12.6 50.5-.2.5-104.7 148.1-105.8 149.7 0 0-11.4 16.2-12.7 18-.2-.1-8.7-5.4-13.1-9-4.5-3.6-17-16.1-19.7-17.8 0 0-.1-.1-.2-.1.1-.1 46.2-90 50.4-98.2 1.4-2.7 19.8-36.1 21.1-38.4 4.4-7.4 8.6-13.9 12.6-19.4 2-2.9-2.4-6.1-4.5-3.2-4.1 5.6-8.4 12.3-12.8 19.8-1.4 2.3-19.9 36-21.3 38.7-4.2 8.2-50.9 99.1-51.3 100.1-.9-.1-1.8-.1-2.6-.1-6.4 0-12.9 1.8-18.5 5-10 5.8-18.3 16-25.5 31-.7 1.4-1.3 2.7-1.5 4.2-.3.1-21.5 32.9-21.5 32.9-2.5 3.9-1.4 9.1 2.7 11.8 1.6 1.1 3.4 1.6 5.3 1.6 2.7 0 5.2-1.1 6.8-3.2l16.5-20.6c1.4 4.1 2 7.9 2 11.6 0 3.5-.7 7.1-1.4 10.9-1.2 6.7-2.5 13.7-.1 20.4 1.8 5.1 5.5 9 8.8 12.2 10.8 10.5 23 19.4 36.4 26.6 1.9 1 4.1 2 6.6 2h.9c3-.3 5.4-2.2 7.2-3.5 7.9-6.1 15.3-13.1 15.5-22.2.1-7.2-4.1-12.4-8.3-17.5-2.3-2.8-4.5-5.4-5.9-8.4-5.7-11.7 1-26 5.6-36.9 2.7-6.2 5.6-11.9 9.1-17.8 5.6-9.5 11.7-18.5 18-27.4 1.1-1.5 14.7-20.8 17-24l56.3-79.7-6.7 137.4c0 1.3.8 2.4 1.9 2.7-3.3 3.1-6 6.9-7.9 11.3-4.6 10.5-5.4 23.5-2.2 39.8.2 1.1.5 2.7 1.3 4.2-.1.3 2.3 39 2.3 39.1.5 8.6 13.5 10.9 17.2 3.3.8-1.7.9-3.7 1-5.6.3-8 .6-16 1-24.1 4 2.4 7.1 6 9.6 9.9s4.5 8.1 6.6 12.2c3 5.6 6.7 11.2 12.5 13.7h-281.2c-1.5 0-2.7 1.2-2.7 2.7s1.2 2.7 2.7 2.7h1599.6c1.5 0 2.7-1.2 2.7-2.7 0-1.4-1.2-2.6-2.7-2.6zm-1134.1-746.5c-.1 2.2-2.3 8.9-4.1 13.2-1.4 3.4-6.1 7.3-10.6 11.1-3.4 2.8-6.6 5.5-8.8 8.2l-21.8-10.2c-1-4.1-.2-8.9 1.9-10.7.8-.7 1.8-1.4 2.9-2 5.9-3.9 14.8-9.9 18.5-33.4.4-2.9 4.3-5 10.7-5.8.4 0 .6-.1.7-.1 3.8-.9 6-.3 7.1 2.4 2.9 7.8 4 16.5 3.5 27.3zm20.7-101.3 68.4-14.7-49.4 114.5-36.1 9.4c.9-2.9 1.7-5.8 1.8-7.6.6-11.4-.7-21.2-4.1-29.7-.5-1.3-1.6-3.3-2.8-4.1zm-134.1 104 37.3-110.8 91.7 7.1s-20.9 65.5-20.9 65.6c-2.2-.4-6.4.2-6.8.3-12.2 1.6-14.9 7.2-15.3 10.4-3.4 21.1-10.7 26.1-16.2 29.7-1.2.8-2.4 1.6-3.3 2.4-.8.7-1.6 1.6-2.2 2.7zm-.1 75.9s3.2 4.9 3.4 5.1c-.7 11.1-1.7 22.3-2.8 33.4-.3 3.5 5.1 4.1 5.4.5 1.2-12.2 2.3-24.7 3-36.9l45.4-58.2 34.5 15.4 2.8 1.3.9.4s-63.5 99.3-66.1 102.9c-2.9 3.9-3.8 6.4-7.4 7.6s-7.4.7-10.6-1.4l-18.7-12.6c-.9-13-2.4-34.7-2.4-34.7 7.1-8.3 10.9-15.9 12.6-22.8zm-131.6-104.6-37-1.9c-.2-5.3 2.7-10.1 5.8-15.2 2.5-4.2 5.2-8.6 6.2-13.5.9-4.3.4-8.6 0-12.8s-.8-8.2.1-12.1c1.2-5.1 4.3-9.4 6.5-14.1 1.8-4 2.7-9.6 3.7-15.6.5-3.1 1-6.3 1.7-9.5.5-2.2-3.1-3.1-3.6-.7-.7 3.2-1.2 6.5-1.7 9.6-.9 5.7-1.8 11.1-3.4 14.7-2.2 4.9-5.4 9.4-6.7 14.8-1 4.4-.6 8.9-.2 13.2.4 4.1.8 8 0 11.7-.9 4.3-3.4 8.4-5.7 12.4-3.1 5.3-6.4 10.7-6.3 16.9l-14.6-.8c-1.9-6.1 2.6-13.6 6.5-20.4 2-3.4 5.3-6.5 6.6-10.4 1.6-4.5.4-9.2-.7-13.7-1.9-7.3-3.5-13.6 5-20.2 9.7-7.5 7.5-15.5 5.3-23.2-3.3-11.8-7.3-26.3 27.6-50.5 14.3-9.9 29.7-12 40.2-12 18.9 0 35 6.7 38.3 13 .3.7 1 1.2 1.8 1.4.1 0 13.8 3.5 22.5 12.6 7.9 8.2 12.2 20.6 12 34.3l-8.9-.3c-1.8-12.4-10.2-26.4-21.8-36.1-1.6-1.4-4.3 1.2-2.3 2.8 10.6 8.8 18.6 21.9 20.4 33.2 0 0-88.1-2.4-88.5-2.4-2.3-.1-3.6 2.6-2.3 4.4 2.8 3.8 4.1 8.8 3.9 13.6-.3 4.9-3 8-4.5 12.4-1.5 4.7.4 9.1 2.1 12.9 1.3 3 2.5 5.7 2.3 8.3-.3 3.3-2.7 6.1-4.4 8.8-3.9 6.2-3.3 10.6-2 13.2 1.1 2.2 2.3 3.6 2.3 6.2-.3 5.5-2.5 11-6.2 15zm11.2-11.4c.2-1.1.3-2.3.3-3.4 0-1.5-.1-3.6-1.1-5.6-1.9-4.2-3-6.5 0-10.9 2.3-3.4 4.8-7 5.2-11.1.4-4-1.2-7.7-2.7-11-1.5-3.4-2.8-6.4-1.9-9.1 1.6-4.6 4.3-7.8 4.6-13 .1-1.4-.3-13.3-2.3-13.4l73.4 2c4.1 10 5.9 20.9 5.1 31.5-.4 6.3-1.6 12.5-3.5 18.4-6.6 20.9-23.4 42.9-47.8 41.1-10.7-.9-21-7-29.3-15.5zm50.5 56.1c-4.6 5-18.5-4.5-22.3-6.8-8.7-5.2-15.8-12-20-16.6-.1-.1-3.1-3.5-3.7-4.2 0-.1 2.6-13.2 2.8-14.4 3.5 2 9.9 4.2 11 4.6 4.4 1.5 9 2.3 13.7 2.3 5.9 0 11.7-1.3 17.1-3.7.8 7.4 4.9 35 1.4 38.8zm-129.6 262.8s41.5.1 41.7 0l-.2 9.6h-41.6c.1-3 .1-6.3.1-9.6zm47.3 38.2c0 .1 3.1 16 9.4 21.7.5.4.7.7.9.9.1.2-1.8 1.4-2 1.4-2.7.1-5.8-1.4-6.9-2.2-1.9-1.6-5.8-6.4-7.2-8-1.5-1.9-4.5-1-4.9 1.4-1.2 10.8-12.6 40.5-18.2 39.9-7.4-1.1-15.9-6.8-20.7-14-2.2-3.3-3.7-7.1-3.7-11 0-3.4.7-7 1.1-10.4.8-7.2 1.9-14.3 3.3-21.3.9-4.6 1.8-9.1 3.2-13.5.8-2.6 1.7-5.8 3.6-7.9h33.3c1.3-.3 4.2 8.1 4.5 8.9 1.9 4.5 3.2 9.3 4.3 14.1zm88.4-218.3c-.3 0-.5 0-.8.1-15.3 6.7-25.5 5.2-37.3 3.3-1.3-.2-3.3-.8-3.8.9-.7 2.2 1.9 2.4 3.3 2.7 5.4.8 10.6 1.6 16 1.6 6.6 0 13.7-1.2 22.4-4.9 0 1-.1 2-.1 3-.9 21.2-.7 42.9-.5 63.8.2 20.8.4 42.2-.5 63-3.2 15-8.1 29.1-10.5 30.2-6.2.7-13.7 1.1-22.5 1.1-20.2 0-42.4-1.9-53.8-3l.4-21.2 20.1-80.9c.1-.4.1-.7 0-1.1l-7.3-44.5s17-70.2 17.1-70.5c.8-3.4-4.5-4.7-5.3-1.3l-17.3 71.5-11.3 46.5c-.1.2-.1.4-.1.6l-1.4 78.9-.7 36.7c-.3-.1-41.7-.2-41.7-.2.2-45.3 1.2-113.2 3.8-123.7l20.2-134c1.1-5.3 6.5-8.4 13.6-10.7 1.7-.6 5.3-1.6 5.3-1.6l23.9-6.7s5.5 4.8 8 7.1c12.8 11.5 25.1 23.6 36.8 36.1 8.7 9.3 17.5 19.4 21.4 31.6 2.6 8.2 2.8 16.9 2.6 25.6zm-87.4 116.2 1-54.8 8.1-33.6 5.2 31.2zm91.6 15c0-.2 0-.4 0-.6.7-19.9.5-40.2.4-59.9-.2-20.9-.4-42.5.5-63.6.4-10.8 1-23.1-2.6-34.4-4.2-13.3-13.4-23.9-22.6-33.7-13.4-14.3-27.6-28.1-42.4-41.1.4-.2 5.7-1.6 7.8-2.3 1.9 1.9 3.4 3.2 5.3 5.2 5.4 5.4 11.5 10.4 18.1 14.4 7.7 4.6 24.3 16 30.6 3.7 2.1-4.1 1.7-9 1.3-13.4-.2-2.4-.5-8.8-1.1-11.4 1.5 1.7 9.3 17.8 9.3 17.8 1.3 2.9-1.2 8-2.8 10.4-4 5.9-10.1 7.3-16.8 7.3-2.3 0-4.9.1-7-1.2-2-1.2-3.9 1.9-1.9 3.1 2.6 1.6 5.8 1.7 8.7 1.7 5.3 0 10.6-.5 15-3.7 3.8-2.7 6.7-6.8 7.9-11.4 6.5 13.8 12.7 27.8 18.7 41.7 1.8 4.2 3.9 9 3.8 13.7 0 1-2.1 90.6-1.6 96 .6 6.3 7.2 58.5 7.2 58.5-5.9 1-21.6 2.9-35.8 3.2zm41.9 24.4c.1-5 .1-9.9 0-14.9 0-4.9 0-9.7-.7-14.6-.5-3.9-1-7.7-1.5-11.6-1.3-10.3-5.1-40.6-5.6-45.5-.5-5 1.6-94.4 1.6-95.4.1-5.9-2.3-11.5-4.2-16-8.8-20.5-29.2-63.8-30.2-65.2l13.9 3.8c6.8 2.2 9.2 6.9 12.1 12.9 1.5 3 19.1 34.8 19.1 34.8 2.4 3.9 5.2 8.3 7 13.4 1.4 3.9 2.1 8.1 1.7 12.9-.6 7.7-4.2 16.7-13.1 27.3-.6.8-.6.9-.4 3.8.5 6.9 9.2 136.5 9.6 151.8-.2 0-.4.1-.6.2-2.1.8-6.2 2.1-8.7 2.3zm-278.2 416.5c-2.3 3-8.1-.5-5.9-3.9l18.6-28.8c2.3 2.1 5.7 9.6 5.7 9.6s-18.3 23-18.4 23.1zm77.7-10c-5.5-.7-11.1-1.4-16.7-1.2-2 .1-3.6 1.6-3.7 3.5-.2 4.2.3 12.9.5 15.9.1 1.9 1.9 3.3 3.8 3.1 2.6-.4 8.7-1 14-.3.4 2.1 1.1 4.2 2.1 6.2 1.7 3.5 4.2 6.5 6.6 9.4 3.7 4.5 7.1 8.7 7 13.9-.1 6.8-6.5 12.6-13.3 17.9-3.1 2.4-5.1 3-8.7 1-12.9-6.9-24.7-15.5-35.1-25.7-2.9-2.8-6.1-6.2-7.5-10.2-1.1-3-1.2-6.1-.9-9.5 1.6 2.4 3.6 4.5 5.6 6.5 6.5 6.4 13.3 12.9 20.1 19.2 2.4 2.2 4.7 4.2 7.1 6 3.1 2.3 6.6 4.2 10.2 5.6 2.2.7 3.5-2.6 1.3-3.4-3.4-1.3-6.5-3-9.4-5.1-2.3-1.7-4.5-3.6-6.8-5.8-6.8-6.2-13.5-12.7-20-19.1-3.3-3.3-6.5-6.7-7.2-10.7.1-.4.1-.8.2-1.3.7-3.8 1.4-7.8 1.5-11.8.1-11.7-5.7-22-10.1-28.7-1-1.5-1.9-2.9-1.9-4.1 0-.9.5-2 1.1-3.3 6.7-14 14.4-23.3 23.4-28.6 4.3-2.5 9.2-4 14.1-4.2-2.5 5.5-2.7 13-1.9 20-1 .5-2.9 1.3-3.6 1.6-1.8.8-3.5 1.9-5.1 3.1-6.2 4.6-11.5 10.2-15.7 16.7-1.2 1.9 1.8 3.9 3 2 4-6.1 9-11.4 14.9-15.8 2.2-1.6 4.5-3 7-3.9.7 4.3 1.8 8.2 2.9 11.1 3.7 10 12.3 23.8 25 19.4-1.4 3.7-2.7 7.1-3.8 10.6zm-2.7 17.3c-5-.6-10.4-.1-13.6.3-.2-3.2-.6-11.2-.3-15.1 4.4-.2 15.4 1.1 15.5 1.1-1.2 4.6-1.9 9.2-1.6 13.7zm11.5-39.8c-2 4.8-5.8 7.5-9.8 7.5-5.7-.1-11.4-6.4-15.1-16.5-3.2-8.9-5.3-24.8-1-32l1.2-1.3c1.2.7 9.5 9 15.3 14 3.5 3.1 7.1 5.9 11 8.5 2.3 1.5 4.7 3.6 7.3 4.7zm161.9 47c1.5 4 3.1 7.6 5.5 10.7-3.9 2.3-7.5 5.2-9.8 7.3-2.5-3-6.3-7.7-8.3-10.5 3.4-2.5 8.8-5.4 12.4-7.4 0 0 .1-.1.2-.1zm-11.9-39.8c.9 4.6 7.3 21.5 4.3 24.5-3.7 3.8-16 3.4-31.4-4.8-7.3-3.8-13.1-15.2-14.4-24zm-46.8 88.3c-.1 3.8-6.9 3.9-7.2.2l-2.1-34c1.2.6 10.4 3.5 10.4 4.6.1 0-1.1 29.1-1.1 29.2zm98.1 2.6c-.5 1.6-1 3.5-2.1 4.5-1 .8-2.6 1.1-4.3 1.3-6.6.8-13.3 1.3-19.9 1.3-8 0-16-.6-23.9-1.8-4-.6-8.6-1.5-12.2-3.9-4.7-3.2-7.4-8.6-10.2-14.4-1.7-3.5-3.5-7.1-5.8-10.4-3.5-4.9-8.1-8.6-12.8-11.4-4-2.4-8.2-4.3-12.5-6-1.6-.7-3.2-1.2-4-2.3-.5-.8-.8-1.9-1.1-3.3-2.9-15.2-2.3-27.2 1.9-36.6 2-4.6 5.2-8.7 8.9-11.6 1 6.9 4.3 15 9.1 21-1 1.5-1.9 3.1-2.7 4.8-.5 1.2-1 2.4-1.5 4.1-2.2 7-3.1 14.2-2.8 21.4 0 1.2.1 2.5 1.5 2.8 3.4.7 2.1-7.5 2.2-9.2.3-4.7 1.2-9.4 2.6-13.9.8-2.5 1.8-4.9 3.3-7.1 1.7 1.8 3.6 3.2 5.6 4.3 9.6 5.1 18.9 7.8 26.1 7.8 5 0 9.1-1.3 11.7-3.9.1.4 2 6 1.9 6.1-.4.2-.7.4-1.1.6-3.9 2.2-9.9 5.4-13.6 8.3-2 1.6-2.4 4.2-1.1 6.2 2.3 3.6 7.9 10.4 9.9 12.7 1.6 1.8 4.5 2 6.2.3 1.9-1.7 6.3-5.7 10.9-8.1 1.5 1.2 3.3 2.2 5.3 3.1 3 1.2 6.1 2.1 9.2 3 6.2 1.7 12.2 3.3 15.5 8 3.8 5.7 2.2 14-.2 22.3zm1087.8-167.2h-163.5v-13.4h161.6c8.1-.7 10.7 13.4 1.9 13.4zm-7.5-18.9h-156v-75.4h93.1c1 0 1.8-.8 1.8-1.8s-.8-1.8-1.8-1.8h-231.3c-1 0-1.8.8-1.8 1.8s.8 1.8 1.8 1.8h73.1v75.4h-326.9c-23.5 0-42.7-18.5-42.7-41.3v-52.8c0-22.8 19.1-41.3 42.7-41.3h479.8c.1.3.3.5.5.8 2.6 3.9 6.4 6.2 9.7 8.1 10.7 6.1 22.3 10.6 34.4 13.2 2.2.5 4.5.8 6.7-.2 2.4-1 3.9-3.3 5.1-4.9 3.7-5.3 7-10.8 7.7-16.5h4.1c-14.5 27.3-14.4 109.7 0 134.9zm-161.5-75.4v122.8l-25-29c-.5-.6-1.3-1-2.1-1s-1.5.3-2 1l-25 29v-122.8zm84.8-93.9c1.6 2.7 2.7 5.3 3.4 8.1s1 5.8 1.2 8.9h-11.5zm-13.3 18.3c-1.1 2.7-5.3 1.2-4.5-1.6l8.3-27.8c.1.1 4.1 4.1 5.7 5.8 0 0-9.3 23.2-9.5 23.6zm7.9-33.1c-1-1-2-1.8-2.2-2.8-.1-.6.8-5.2.6-5.3 7.1 4.9 11.9 11.1 15 19.3.8 2.1 4.2 1 3.4-1.3-3.5-9.4-9.1-16.3-17.6-21.8 2.4-10.1 6-17.7 10.9-23.2.9-1.1 1.9-2 3-2.9 1.9 1.4 4 2.9 6.2 4.2.9 8.8 4.2 18.6 6.4 23.5 11.4 25.5 17.1 29 21.2 29 1.8 0 3.3-.7 4.5-2 .8 4.4 2.4 8.4 5.3 11.9 2.1 2.6 4.7 4.5 7.2 6.3 3.9 2.9 7.3 5.4 8.3 9.6 1.2 4.9-1.5 10.3-4.9 15.6-6.9-1.3-23.2-7.3-27.7-9.9-2-1.2-3.8 2-1.8 3.2 4.2 2.4 19 8.1 27.3 10-1.6 2.2-2.9 2.7-5.5 2-11.5-2.6-22.5-6.8-32.8-12.6-2.8-1.6-6-3.5-7.9-6.4-4.7-7.1-2.9-16.8-4.8-24.7-2.4-10-9.2-17.1-14.1-21.7zm25.5-29.8c.1.1 3.8 2.4 5.6 3.4 6.7 4.2 20.7 13.6 20.8 13.6v-.1s-1.8 19.4-2.8 22.6-1.9 3.4-2.2 3.4c-.5 0-5.1-.7-16.2-25.7-1.9-4.3-4-10.9-5.2-17.2zm32.1 23.1c.2-1.7.9-5.2 1.4-5.5 1.6-1 2.9-2 3.3-3.9 2-9.2 8.7-23.1 15.7-37.8 1-2.2 4.2-9.8 5.5-11.6 1.8 6.5 5.2 21.6 5.3 22.5v69.8c0 2-4.2 5-10.9 5h-9c-.5-.4-1.1-.9-1.7-1.3-2.4-1.8-4.6-3.4-6.3-5.4-6.3-7.6-4.8-19.9-3.3-31.8zm31.1 50.4c-.2.1-11.1-.5-11.1-.5-.5-2.3-1.6-4.2-2.9-5.8h3.1c5.6 0 10.5-1.8 13.4-4.5 1.5 1.1 2.4 2.9 2.4 5 .2 3-2 5.5-4.9 5.8zm24.6-23.7c-1.2-.3-2.3-.6-2.9-1.2-.4-.5-.8-1.5-1-2.3-3.4-10.2-4.4-18.7-3.2-25.9 3.2-.3 6.9-.8 11-1.4 1.4 2 3 3.9 4.7 5.5-1.1 2.2-3.1 6.1-3.5 7.7-.3 1.1-.5 2.2-.7 3.4-.8 5.2-.8 10.5 0 15.6-1.6-.6-3-1-4.4-1.4zm8.8 30.9c-.9.1-1.9-.4-2.2-1.5l-4.5-23c2.3.8 4.5 1.6 6.3 2.6 0 0 2 19.7 2 19.8.3 1.3-.6 2-1.6 2.1zm49.4-31.3c3 .5 5.8 1.6 8.6 2.1 4.4.7 8.1 1.2 10.7 4.1 2.2 2.6 2.9 6.2 2.8 10.4-3.5 4.5-10.4 5.2-15.6 6.1-9.2 1.6-18.9 1.9-28.2.2-2.3-.4-3 3.1-.7 3.6 4.5.8 9.1 1.2 13.7 1.2 9.9 0 21.7-1.1 30.5-5.9-.4 1.7 0 4.1-1.5 5.3-.5.4-1.1.6-1.7.7-10.5 2.9-21.6 4.2-32.5 3.8-2.9-.1-6.2-.4-9-1.8-3.7-2-6.2-6-8.9-10.2-1.6-2.6-3.4-5.3-5.5-7.7-3.7-4.1-8.1-6.8-12.4-8.7-1-5.5-1.2-11.1-.3-16.6.1-1 .3-2 .5-3 .5-1.6 2-4.8 2.7-6.1 1 .8 2 1.6 3 2.3 13 8.3 22 12.4 27.7 12.4 2.1 0 4-.7 5.5-2 .6 3 9.6 9.6 10.6 9.8zm-14.5-17.2c.5 2.7-.1 3.4-.3 3.5-.1.1-3.7 3.2-26.1-11.2-2.5-1.6-4.9-3.9-7.2-6.7 1-.2 25.8-5.3 26-5.3.8 2.2 7.2 17.2 7.6 19.7zm-140.3-282.5c20.4 5.1 40.3 12.1 60.4 18.3 4.8 1.5 9.4 3 13.8 4.3 8.6 2.7 17.2 5.1 25.3 9.2 5.4 2.7 11.3 6.2 14.8 11.3 6.2 8.8 8 91.1 8.8 126.2.2 11 .4 19.7.7 24v.1c.9 11.2 2 19.5 3.3 29.1 1.3 9.2 2.7 19.6 4.2 34.9 0 0-44.8 8.1-46 8.2v-.1c-1.3-5.3-2.7-10.8-4.2-16.4 2.8.6 6.2.9 9.8.9 13.5 0 30.3-3.5 31.2-3.7 1-.2 1.6-1.2 1.4-2.2s-1.2-1.6-2.2-1.4c-.3.1-30.3 6.4-41.4 2.3-.6-2.3-7.5-26.8-8.8-32.5-.5-2-.8-3.8-1.1-5.2 0-.1.1-.2.1-.3 17-44.9 30.7-115.1 30.8-115.8 4.5-23.1-13.4-38.3-30.3-44.4l-95.8-27.4c1-.8 2-1.7 2.9-2.7 7.1-7.7 7.1-17.1 6.8-20.6-.1.1 13.2 3.3 15.5 3.9zm3.4-40.6c-1 .3-2 .5-3 .5-3.8 0-7.2-2.4-8.5-6l-1.5-4.2 25.9 5.2zm117.2-51.9c-.2.2-.5.5-.7.7-2.2.3-4.5.4-6.8.4-1.9 0-3.8-.1-5.4-.2-3-2-3.9-23.7-1.4-32.7 1-3.6 3.2-6.8 5.7-10.5 1.6-2.3 6.2-4.2 10.2-4.2 1.9 0 3.1.5 3.4.9.1.1.2.3.2.8-1 13.3-3.1 36.6-5.2 44.8zm-127.1-100.8 85.4 17s-6 41-6.1 41.3c-.3 2.3 3.3 2.9 3.6.5l6.2-41.8 55.9-24.7-12 57.2c-1.2-.4-2.7-.7-4.4-.7-5 0-11.7 2.2-14.7 6.5-2.8 4-5.3 7.7-6.5 12.1-2.2 8-2.8 30.2 1.9 36.9 1.4 2 3 2.5 4.1 2.6 2 .2 7.1.3 7.5.3l-4.3 20.6-47.1 21.7 11.6-78.5c.1-1-.5-1.9-1.5-2-1-.2-1.9.5-2.1 1.5l-11.9 80.5-86.1-17.2 4.3-28.4c1.9-1.4 5.2-3.8 5.2-3.8l52.7-10.9c6.9-1.4 11.6-8.7 10.3-16.5-2.3-13.5-19.8-20.6-35.9-20.6-3.3 0-6.4.3-9.2.9l-16.2 6.5zm-23.1 72.4 31.3-12.6c14.4-2.7 36.4 2.7 38.5 15.4.8 4.8-1.9 9.3-6 10.1l-53.9 10.7zm23.7-158.8c-.8 5.4-3.4 16.6-3.5 17-1.1.2-2.2.2-3.3.1-7.7-.7-13.4-7.5-12.8-15.2.6-7.2 6.7-12.8 14-12.8.8 0 6.9.7 6.8 1.8-.4 2.9-.8 5.9-1.2 9.1zm1.4-13c-1.7-.8-3.6-1.3-5.6-1.5-9.8-.8-18.3 6.5-19.1 16.1-.1.8-.1 1.6 0 2.4h-1.8l-.8-6.2c-.2-1.5-1.6-2.6-3.1-2.4s-2.6 1.6-2.3 3.1l.7 5.4-2.5-.1c.4-4.7-1.1-9.3-4.1-12.9-3.1-3.6-7.3-5.8-12-6.2-8.1-.7-15.5 4.3-18.1 11.6l-13.5-5.1c3.8-4.7 14.5-16 30.4-16 5.3 0 10.5 1.5 15.6 2.8 6.1 1.6 12.4 3.3 18.4 3.3 3.3 0 6.2-.5 8.8-1.6.9-.4 9.1-3 9.1-4.3.2 3.5.1 7.4-.1 11.6zm-38.2 16.5c-.7 7.6-7.4 13.4-15.2 12.8-7.6-.6-13.4-7.6-12.8-15.2.7-7.5 7.6-13.4 15.1-12.8 7.7.7 13.5 7.5 12.9 15.2zm42.9-7.9c1.6 2.5 2.4 5.6 2.2 8.8-.3 4-2.4 7.6-5.4 9.9 1.1-4.3 1.9-8.9 2.6-13.4.2-1.9.4-3.7.6-5.3zm-118.7 37.1c-5.2 10.2-16.7 17.7-30 19.7-2.6.4-5.4.6-8.2.6-7.3 0-15.2-1.4-23.6-4 9.8-5.3 20-13.4 22.6-25.4 2.6-11.7-1.6-23.4-3.1-35s-2-20.5-1.5-28.7c1-15.2 6.4-34.8 26.6-41.3 9.4-3.1 20.6-2.1 29.5 2.4-2.1 1.6-4 3.3-5.8 5.1-.1-.1-5.2-2.1-7.6-2.5-9.9-1.5-19.7 3.3-26.9 13.4-1.4 1.9 1.5 4 3 2.1 7.6-10.9 18.6-14.7 28.8-10.3-10 11.2-16.1 26.2-17.1 43-.9 15.6 5.4 31.6 17.5 45.3-.6 5.5-1.8 10.8-4.2 15.6zm-7.8-60.6c1.2-21.3 11.1-39.3 27.1-49.4 7.9-5 17-7.5 27.1-7.5 6.1 0 12.7 1 19.5 2.8 18.1 4.9 26.3 14.5 29.8 18.6 0 .4-4.3 8.8-23.6 9.5-1.4 0-3.2.6-2.6 2.5.4 1.4 1.8 1.3 3 1.2 8.8-.9 20.5-2 26.4-10.3 6.2 2.9 14.1 10.3 16.4 18.2.9 3.3.8 6.9-.9 9.9-1.7 2.9-4.8 4.4-7.9 5.7-3.3 1.3-6.8 2.5-10.3 2.5-5.3 0-11.3-1.6-17-3.1-5.6-1.5-11.2-3-17.1-3-16.9 0-28.4 10.6-33.5 16.6-3.2-5.6-8.7-8.1-13.5-8.1-4.1 0-7.7 1.7-10 4.6-2.3 3.1-2.9 7.2-1.5 11.7 1.8 6.2 3.5 9.5 5 12.4 1.6 3 3 5.8 4.4 11.6-14.2-13.8-21.7-30.3-20.8-46.4zm27.8 53.6c0-.4-2.1-13.9-6.5-21.5-1.6-2.7-3-5.7-4.6-11.4-1.4-4.8.8-9.3 6.2-9.3 3.6 0 8.4 2.3 10.1 8.7.4 1.6 2.4 2.5 3.9 1.8l15.2 5.7c-.5 5 .7 9.9 4 13.9 3.3 3.9 8.4 6.3 13.5 6.3 7.8 0 14.6-5.2 16.9-12.5l3.7.1 2 14.9v.1c-2.6.1-5.8-.4-6.5-1.1-1.1-1.1-2.8-1.1-3.9 0s-1.1 2.8 0 3.9c3.1 3.1 8.4 2.9 12.4 2.6 3.5-.2 3.7-4.2 3.4-6.6l-1.8-13.7h1.9c1.9 7 8 12.4 15.6 13 .8.1 1.7.1 2.5 0-1.2 3.7-2.5 7.2-4 10.5-6.3 14.1-18.5 31-38.8 29.3-17.6-1.3-35.5-17.3-45.2-34.7zm12 24.1c9.6 8.9 21 15.3 32.6 16.3.9.1 1.8.1 2.7.1l.9 13c-.9 8.4-7.9 14.1-17.5 14.1-6.5 0-13.3-2.5-19.5-7.1-.1-.1-6.5-6.2-6-13.5 1-2.1 4.9-11.5 6.8-22.9zm-69.4 195.2c-4.9-3.3-11.3-8.6-10.2-15.3l20.9-124.9c.3-6.8 4.5-11.2 10-14.4 7.2-3.2 14.6-6.2 21.6-9.2 2.7 7.7 14.3 17.7 27.1 23.8 6.2 3 14.5 5.8 23.4 5.8 4.8 0 9.6-.8 14.5-2.9 6.1-2.5 9.9-6.9 12.7-14.6.8-2.2-2.6-3.5-3.4-1.3-2.4 6.7-5.6 10.3-10.7 12.5-12.7 5.3-26 1.4-34.9-2.9-13.3-6.4-23.3-16-25.3-22l11.7-4.5c.9 8.4 7.3 14.6 7.9 15.1 7.4 5.4 15.3 8.3 23 8.3 5.6 0 11.2-1.6 15.6-5.2 2.1-1.7 3.7-3.9 5-6.2 1.6-2.7 2.7-10.8 2.7-10.8 2 0 21.1.6 24.4 10.7 1.4 4.3 3.5 8.6 5.9 12.8l-7.6 49.6-10 4-86.1 40.5s12.1-57.6 12.1-57.8c.7-3.4-4.7-4.6-5.4-1.1l-12.9 61.8c-.5.2-4.3 1.3-5.7 2-6.9 3.8-10.4 7.3-13.6 11.6-2.1 2.9 2.3 6.1 4.4 3.3 2.8-3.8 5.7-6.8 11.7-10.1 2.2-1.2 4.8-1.5 6.9-2.5 11.5-5.4 58.5-27.6 70.6-33.3l.1-.1c2.3 8 4.4 16.1 6.2 24.2.5 2.3 4.1 1.5 3.6-.8-1.9-8.3-4.1-16.7-6.5-24.9l11.4-5.3 10.5 25.2c-.9.7-82.8 59.2-111.6 63.7-6.9 1.2-14.2-.8-20-4.8zm16.3 10.8c1.6 0 3.2-.1 4.8-.4 28.4-4.5 83.6-42.7 106-58.9l-3.9 25.6c-.2 1.5.7 2.8 2.2 3.1l15.2 3.1c-.4 0-5.6 42.8-5.8 47.1-.5 9.3-3.9 18-11.8 22-8.1 4.2-18.1 4.2-26.9 3.5-41-3.4-79.6-23.2-86.1-26.7-.1 0 6.2-18.4 6.3-18.4zm-11.4 20.1v.2c-.1-.1-.1-.2 0-.2zm-13.3 72.6c-5.6-18.8 2.6-38.5 12.4-58.7.6-1.3 3.8-9.9 4.1-10.5 8.6 4.5 46.8 23.6 87.6 27 2.7.2 5.2.3 7.6.3 8.4 0 15.4-1.3 21-3.8l100.5 28.8c14.7 5.3 30.4 18.5 26.6 38.2-.1.7-13.9 71.3-30.8 115.8-1.5 3.3-7.2 15.3-8.4 17.9-7.2 15.1-14.3 30.3-16.3 40-.2 0-15.9-10.5-22.7-14.7-6.2-3.8-12.6-7.7-17.9-11.6 0-.2 2.2-11 2.7-13.3 4.5 3 34.2 17.7 35.1 18.5 1.8 1.6 4.1-1.4 2.3-2.8-1.2-1-32.3-16.4-36.5-19.5.4-1.5.8-3 1.2-4.6 1.1-4.3 18.2-70 21.9-81.7 2.7-8.6 5.2-17.2 8.1-25.8 1.6-5 4.8-14.4 6.1-15.9 2.3-2.7-1.8-6.3-4.1-3.6-1.8 2.1-5.3 12-7.1 16.7 0 0-7.7 1.2-11.1 1.5-21.3 1.8-42.8 1.9-64.2 1.9-42.8 0-71.6-1.9-80.9-5.3-18.9-6.9-32.8-19.9-37.2-34.8zm-46.3 31.2c0 .5-.1 1.1-.3 1.5h-475.4v-8.3l469.7.5c3.3.1 6 2.8 6 6.3zm-12.3-148.9c-15 27.6-14.9 111.2.1 136.7h-463.5v-80.2h132.8c1 0 1.8-.8 1.8-1.8s-.8-1.8-1.8-1.8h-233.5c-1 0-1.8.8-1.8 1.8s.8 1.8 1.8 1.8h18.3v80.2h-25.3c-24.6 0-44.6-18.8-44.6-41.9v-53.5c0-23.1 20-41.9 44.6-41.9h108.7c2.5 1.6 5.5 2.1 8.4 2.1 1.3 0 2.5-.1 3.7-.2 6.4-.5 33.8-1.7 37.2-1.9h185.7c3.2.5 6.1 1.1 8.4 1.5 2.9.5 6 1.1 8.9.2 1.2-.4 2.4-.9 3.4-1.7h207c-.1.2-.2.4-.3.6zm-468.9 57.6v164s-33.5-39-33.7-39.1c-1.1-1.3-3.1-1.2-4.2 0l-33.7 39.1v-164zm74-65.3-9-41.1 71.3 23.4zm86-10 35.4 11.6h-107l40.7-11.6zm-87.4 16.1c-.1 0-.3.1-.4.1h-.2c.1 0 .4 0 .6-.1zm181.5-11.3c.9.3 1.9-.1 2.2-1.2 3.5-13.9 2-27.3-1.7-39.4-1.2-4.1-2.7-8-4.4-11.9-.4-1-4.8-11.2-5.3-11.2 2.3-.7 4.2-1.2 5.3-1.4 3.8 4.8 7.1 10.7 9.5 17.3.6 1.7 1.2 3.4 1.8 5.2 4 13.3 4.9 28.4 2.1 41.3-.6 2.7-1.7 6-3.5 8-2.5 2.8-5.8 2.2-9.2 1.6-2.4-.5-40.9-6.8-46.8-7.8l.1-49.3c9.7-3.8 26.4-10.3 37.2-13.9 1.6-.5 9 20.6 9.8 23 3.5 11.6 5 24.3 1.7 37.5-.4 1.2.3 2 1.2 2.2zm14.8 0c.4-1.6.7-3.1.9-4.8h205.4c3.3 0 6 2.7 6 6.2 0 3.1-2.4 5.4-5.5 5.6-.4-.3-209.1 0-209.1 0 1-1.8 1.7-4.4 2.3-7zm7.5-116.7c18.2 0 32.9 16.7 31.2 34.7-1.2 12.3-9.8 23.1-21.7 26.8l-20.8 6c-2.8-7.6-6.6-14.6-11.3-20.1-.7-.8-1.6-1.2-2.9-1.2-5 0-24.7 7.5-46.7 16v-4.2c0-1.2-.7-2.2-1.8-2.6l-49.7-18.2 114.5-35.7c3-1 6.1-1.5 9.2-1.5zm-180.2-86.4c-.6-1.5-1.5-2.5-2.6-3-4.5-2-8.4 2.3-12.8 7.3-3.5 3.9-7.4 8.3-11.6 9.9-3.6 1.4-8.1 8.6-9.7 13.6-1.8-.1-4.6-.3-8-.3v-72.7l82.3 21.2 1.7.4v22.4c-9.1-1.9-23.1 6.1-34.6 12.6-2.2 1.2-4.3 2.4-6.1 3.4.3-1.2.5-2.4.8-3 1.9-4 1.7-9 .6-11.8zm-25 19.4c5.5-2 9.9-7 13.7-11.4 1.8-2.1 4.8-5.4 6.2-5.9.5 1.4.7 4.9-.4 7.4-1.2 2.8-1.9 8.8-2 9.5-.1.9.3 1.8 1 2.4s1.6.8 2.5.5c2.4-.7 6.4-3 11.5-5.8 9.7-5.4 25.9-14.6 32.1-11.5 5 2.5 7.9 5.3 8.8 8.7 1.1 3.9-.4 9-4.5 15.3-9.3 14.7-12.9 20.1-58.7 26.4-4.3-7-13-19.4-16.8-24.9.8-3.3 4.9-10 6.6-10.7zm111.3 43.4c-.2-.6-2-6.5-3.8-9-1.6-2.2-2-5.7-1.8-7.2 1.5.3 5 3 7.2 4.6 4.6 3.5 9.9 7.5 15.7 8.5 2.1.4 6.2 4.1 7.3 6.4l-7.2 31c-36.8-1.7-50.5-5.8-62.1-18-6.2-6.5-9.8-11-9.5-14.5.2-2.2 1.9-4.5 5.3-7.1 5.5-4.2 23.2 1.7 33.7 5.2 5.5 1.8 9.9 3.3 12.4 3.5 1.9.4 3.3-1.6 2.8-3.4zm18.1-8.3c-4.4-.8-9.1-4.3-13.3-7.5-5.3-4.1-9.9-7.6-14-4.8-1 .7-1.6 1.8-1.9 3.4-.5 3 .3 8 2.7 11.4.4.6.9 1.6 1.4 2.8-1.9-.6-4.2-1.4-6.6-2.1-9-3-19.5-6.5-27.9-6.9v-13.7c1.2-1.7 2.4-3.6 3.7-5.6 5-7.7 6.6-14.2 5.1-19.8-1.2-4.2-4.1-7.6-8.8-10.5v-25.3l82.2-21.1v96.6l-13.4 9.1c-2.4-1.8-7.4-5.7-9.2-6zm-117.2 5.7c.1-.3 46.7-6.8 52.1-16.5v7.4c-2.1.4-3.9 1.1-5.4 2.2-4.8 3.7-7.1 7.1-7.4 11-.4 5 2.8 9.7 7.6 15l-54.6-14c1.3-.5 5.5-2 5.5-2 .9-.3 1.4-.9 2.2-3.1zm54.2 26.7h.2c11.9 10.2 27.4 14.1 60.9 15.7 0 .3.1.5.3.8l-54.8 17.1-94.2-35.4c.7-2.1 1.6-5 2.8-8.6.6-1.8 1.2-3.9 1.6-5.2l10.7-3.2c.3.2 72.5 18.8 72.5 18.8zm71.3-256.1c-.1.5-1.9 9.7-7.5 12.9.2-.8.3-1.7.4-2.6l5.4-23.3c3.3 1.2 3.6 4.3 1.7 13zm-21.4-82.6c8.1 1.8 17.6 18.2 17.6 31.1l-3 36.7v.1l-1.5.7c-1.2-19.2-3.3-35-10.1-42.1.3-.7.6-1.4.9-2.1 2.1-5.6.7-13.9-3.3-19.6-.7-1-1.4-1.8-2.1-2.5.3-.2 1.3-1.8 1.5-2.3zm-13.3 58.2c-10.3 0-18.8 7.9-19.7 18h-2.2c-.1-8.7 0-16.6 0-16.7 0-1.5-1.2-2.7-2.7-2.8-1.5 0-2.7 1.2-2.7 2.7 0 .6-.1 8.3 0 16.8h-8.7c-.9-10.1-9.4-18-19.7-18-9 0-16.5 6-19 14.1l-2.7-1.4c2.7-17.5 7.7-37.2 14.9-44.4.8-.8 1.9-1.2 3-1.1s2.2.8 2.8 1.8c1.9 3.1 4.6 6 6.3 7.2 7.8 5.5 18.6 5.5 29.8.2 3.1 1.6 6.7 2.8 10.2 3.4 2.2.4 4.3.6 6.3.6 7.3 0 13.3-2.5 17.4-7.2 5.5 7.1 7.1 25.4 7.9 40l-2.1 1.1c-2.5-8.4-10.1-14.3-19.1-14.3zm16.2 19.8c0 8.9-7.2 16.2-16.2 16.2-8.9 0-16.2-7.2-16.2-16.2 0-8.9 7.3-16.2 16.2-16.2s16.2 7.3 16.2 16.2zm-55.8 0c0 8.9-7.3 16.2-16.2 16.2s-16.2-7.2-16.2-16.2c0-8.9 7.2-16.2 16.2-16.2 8.9 0 16.2 7.3 16.2 16.2zm-50.3 7.1-.1-.4c-2.2-5.2-2.6-9.4-1.1-11.9.6-1 1.5-1.6 2.4-2l3.6 18.7v.3c.2 2.1.5 4.2.8 6.3-1.9-1.7-4.3-6.5-5.6-11zm6.8-13.9-.6-3.5-2.2-37.3c0-16 15.8-38.3 31.4-38.3 2.2 0 4.3 0 6.4.2 6 .3 12.9.7 17.2-3.8 2.4-2.5 6-3.9 9.7-3.9 5.2 0 10 2.9 11.9 7.2 1.1 2.4 4.9 2.2 6.1 0 .8-1.8 2.6-2.3 3.9-2.3 5.2-.3 10 4.2 7.1 9.3-.1.3-.3.5-.3.7-1.2-.5-2.5-.7-3.8-.7-3.4 0-3.6 5.5 0 5.5 2.7 0 4.7 2.3 5.7 3.7 3.9 5.6 4.6 13.5.2 19-5.4 7-14.9 6.3-19.2 5.6-2.8-.5-13.8-3.1-13.8-7.2 0-3.5-5.5-3.6-5.5 0 0 2 1.1 3.8 2.8 5.5-8.3 3.2-15.9 2.9-21.3-1-.8-.6-3.1-2.9-4.8-5.6-3.1-5-10.2-5.8-14.4-1.6-8.6 8.8-13.5 29.7-16.1 45.7-.1.9-.2 1.9-.4 2.8zm3.5 18c.3-4.2.8-9.2 1.5-14.5l2.6 1.3c-.1.7-.1 1.3-.1 2 0 10.9 8.9 19.8 19.8 19.8 10.3 0 18.8-7.9 19.7-18h8.7c.1 5.6.3 11.2.7 15.2.1.5 0 1 0 1.3l-6.9.3c-1.5.1-2.7 1.4-2.6 2.9s1.3 2.6 2.7 2.6h.1l8.2-.4c.4 0 .8-.1 1.2-.3 2.3-1.3 3-4.4 2.8-6.9-.4-3.8-.5-9.2-.6-14.7h2.1c.9 10.1 9.4 18 19.7 18 10.9 0 19.8-8.9 19.8-19.8 0-.7 0-1.3-.1-2l1.6-.8c.1 1.4.1 2.8.2 4.1.2 5 .4 9.4.7 12.8-2.4 17.2-10.9 31.8-22.8 40.7-1.8 1.3-3.6 2.5-5.5 3.6-15.1 8.7-34.4 8.3-48.9-1.5-1.9-1.3-3.7-2.7-5.5-4.3-10.4-9.5-17.4-23.9-19.1-41.4zm73.5 53.5v8c0 10.3-16.9 20.4-24.7 24.1-7.7-3.7-24.2-13.8-24.2-24.1v-9.3c5.3 5.3 21.5 6.7 24 6.7 8.6.3 17.2-1.6 24.9-5.4zm-172.3 144.5c6.4-12.1 47.7-98.5 53.3-108.1 0-.1.1-.1.1-.2 1.1-1.5 9.2-12.8 16.9-17 9.5-5.2 23.7-9 35.2-11.9 4.8-1.3 9.1-2.4 12.4-3.5v4.3c0 16.6 27.4 29.1 28.5 29.7 2 .8 4.6-1.1 6.2-2 3.5-1.8 6.9-3.9 10.2-6.2 6.9-5 15-12.2 15-21.5v-2.6l3.9.9c-.3 5.5-1.4 10.9-3.3 16.1-1 2.7-2.1 4.9-3.3 6.8-3.5 5.3-9 8.9-14.3 12.5l-13 8.7-14.7-8c-7.3-4-13.5-7.8-16.3-14.1-.9-2.1-4.3-.8-3.3 1.5 3.5 7.9 11.8 12.5 17.9 15.8l16.6 9.1 14.9-9.9c5.3-3.5 11.4-7.6 15.3-13.4 1.4-2.1 2.6-4.6 3.7-7.5 2-5.3 3.1-10.9 3.5-16.6l37 8.4c13.1 3 23.5 12.9 27.2 26l42.7 120.8c1.5 3 1.5 6 0 9-7.2 14.5-45 27-70.7 33.6-4.1 1.1-11.8 2.8-12.1 2.9l7.6-32.6 14.2-10c.7-.3 15-11.4 15-11.4 1.2-.9 1.5-2.6.5-3.8-.9-1.2-2.6-1.5-3.8-.5l-10.1 7.5-.3-19.3 2 3.2c.8 1.3 2.5 1.7 3.8.9s1.7-2.5.9-3.8l-6.1-11.8v-65.5c0-1.8-1.7-3-3.4-2.7l-15.2 3.9c-1.2-4.4-1.8-9-1.6-13.5.1-3.5-5.4-3.8-5.5-.2-.2 5.1.4 10.2 1.8 15.1l-67.4 17.3-61.9-16.5s1.4-16.1 1.4-16.2c.3-3.5-5.2-4-5.5-.5l-1.3 15.3s-20.7-5.3-20.8-5.4c-1.7-.4-3.4.9-3.4 2.7v76.3c-13.5.5-32.2 3.5-42.2 15.2-2.3 2.7 1.9 6.2 4.2 3.5 6-7.1 15-10.2 23.9-11.7 9-1.5 28.1-1.3 28.1-1.2 6.9 9.9 14.1 20.5 17.2 25.4l-59.7 17.8c-8.8 1.2-15.3-1-19.3-6.6-7.6-10.7-4.6-30.7-2.6-34.5zm52.3 37.8c-.2.5-.3 1-.5 1.6-1 3-2.2 6.8-3 9.1l-14.5-5.3zm-52.9 65.4c-16.7-5.5-25.3-24.6-19.3-40.9 3.7-10 12.4-17.6 22.8-19.8 3.4 2.5 8 4.4 14.4 4.4 2.8 0 5.4-.4 8-1.1l177.5 65.1-.1 58.9c.1 0-201.9-66.1-203.3-66.6zm12.1 9.8 7.6 2.5c-5.5 11.3-10.3 25.8-7.2 42 .7 3.5 1.8 7 3.1 10.3.9 2.1 4.3 1 3.4-1.4-1.2-2.9-2.1-5.9-2.7-8.9-3.3-15.5 1.2-29.5 6.9-40.9l40.6 13.3 2.5 11.4c.2 6.9-.8 13.6-3.1 19.8-.8 2.2 2.6 3.5 3.4 1.2 1-2.8 1.8-5.6 2.4-8.6l4.4 20.1c-6.3.4-15.1.8-23.5 1.2-10 .4-20.4.9-26.8 1.4-2.6.2-5.4.3-7.3-.4-3.7-1.2-6.6-4.6-8.6-10.1-1-2.8-1.8-5.6-2.4-8.5-3.5-15.9-.7-33.2 7.3-44.4zm-173.6 158.6v-44.2c0-35.5 33.1-64.5 73.7-64.5h88.1c.4 1.6 1 3.3 1.6 4.9 1 2.6 2.1 4.8 3.4 6.7h-102.8c-27.6 0-50.1 21.3-50.1 47.4v53.5c0 26.1 22.5 47.4 50.1 47.4h25.3v8.3h-44.1c-26.5-9.8-45.2-32.8-45.2-59.5zm-73.2 67.5c0-.9 2.2-2.6 5.7-2.6h156.9v4.5h-155.9c-3.8.5-6.7-1-6.7-1.9zm22.5 52.6c.5-15.8-2.3-34.2-9.2-44.5-.1-.3-.3-.5-.5-.8h149.8v56.6c0 1.5.4 2.8 1.2 3.9 1.7 2.4 5.1 2.6 7.1.4l33-38.3 33 38.3c.9 1.1 2.1 1.6 3.4 1.6 2.7 0 4.9-2.6 4.9-5.9v-56.6h314.7c23.5 0 42.7 11 42.7 24.5v32.6c0 13.5-19.1 24.4-42.7 24.4h-546.8c5.5-7.3 9-20.2 9.4-36.2zm-16.8 42.4 554-.6c27 0 48.2-13.2 48.2-29.9v-32.6c0-16.8-21.2-30-48.2-30h-314.7v-4.5h553c1.4.6 2.9 1.1 4.3 1.7 11.4 4.8 26.7 4.2 39.9 4.8 14.3.6 78.9.4 87.7.1 3.8-.1 19.9-.8 28.4-2.1-1.2 5.6-3.4 12.5-6 20.9-7.2 22.8-20.1 74.9-20.9 77.9l-925.7-.4c-3.4 0-5.7-1.5-5.7-2.7 0-.9 2.1-2.6 5.7-2.6zm-46.5 107.3c-1.5 0-2.7-1.2-2.7-2.7v-90.8c0-1.5 1.2-2.7 2.7-2.7h970.6c-.9 3.3-1.7 6.6-2.4 9.8-.8 3.8-1.6 7.7-2.2 11.6-1.6 1.2-3.2 2.6-4.6 4.1-6.6 7.3-11 17.9-13.5 32.2-.2 1.2-.4 2.5-.3 3.8-.4 1.2-9.9 32.7-9.9 32.7-.2.6-.3 1.2-.3 1.9zm.1 108.4v-43.8c0-26.7 18.2-49.6 44-59.1h895.3c.9 1 2 1.8 3.4 2.3 3 .9 6.4.1 8.5-2.3h14.6c.2 2 .6 3.9 1.1 5.8h-477.5c-26.6 0-48.2 21-48.2 46.8v52.8c0 25.8 21.6 46.8 48.2 46.8h326.9v13.8c-.2-.1-758.8-.4-758.8-.4-32.7-5.5-57.5-31.6-57.5-62.7zm61 194.2c1.9-11.2 2.9-24.2 3-37.5.3-28.2-3.3-57.4-10.8-71.2h407.9c23.1 0 41.8 18.3 41.8 40.8v52.2c0 22.5-18.8 40.4-41.8 40.4h-407.6c.2-.4 5.9-14.9 7.5-24.7zm-16.6 43.2c-3.1 0-5.7-4.9-5.7-8.1s2.6-5.3 5.7-5.3h416.7c26.1 0 47.3-19.9 47.3-45.4v-52.2c0-25.5-21.2-46.4-47.3-46.4h-416.7c-3.1 0-5.7-2.7-5.7-6 0-3.1 2.6-5.7 5.7-5.7h771.9v25.5c0 1.2.4 2.4 1 3.3 1.6 2.2 4.7 2.4 6.5.4l25.1-29.1 25.1 29.1c.8 1 1.9 1.5 3.1 1.5 2.4 0 4.4-2.3 4.4-5.2v-25.5h133.5c39 0 70.6 28 70.6 62.3v42.8c0 34.4-31.7 64.1-70.6 64.1h-970.6z" fill="#002033"/></svg>